<?xml version="1.0" encoding="UTF-8" standalone="no"?>
<!--
  ogenti Business Card FRONT | L1 무광배경 / L2 무광텍스트 / L3 유광SpotUV
  LAYER STRUCTURE:
    l1-matte-bg   -> 무광 기저  (matte laminate pass)
    l2-matte-text -> 무광 텍스트 (matte laminate, same plate)
    l3-spot-uv    -> 유광 Spot UV (UV varnish pass)

  Print spec : FOGRA39 (ISO 12647-2 coated offset)
  Artboard   : 96mm x 60mm  (trim 90mm x 54mm, bleed 3mm/side)
  All text   : vector path outlines
  CMYK       : icc-color(FOGRA39, C, M, Y, K)
-->
<svg version="1.1"
  xmlns="http://www.w3.org/2000/svg"
  xmlns:xlink="http://www.w3.org/1999/xlink"
  xmlns:inkscape="http://www.inkscape.org/namespaces/inkscape"
  width="96mm" height="60mm"
  viewBox="0 0 1120 700">

  <defs>
    <color-profile name="FOGRA39"
      xlink:href="https://www.color.org/chardata/rgb/sRGB.xalter"
      rendering-intent="perceptual"/>
    <pattern id="gridpat" width="30" height="30" patternUnits="userSpaceOnUse">
      <path d="M 30 0 L 0 0 0 30" fill="none" stroke="white"
            stroke-width="0.5" stroke-opacity="0.02"/>
    </pattern>
    
    <linearGradient id="edgeTopGrad" x1="0%" y1="0%" x2="100%" y2="0%">
      <stop offset="0%"   stop-color="#E86520" stop-opacity="1"/>
      <stop offset="30%"  stop-color="#F08535" stop-opacity="1"/>
      <stop offset="70%"  stop-color="#E86520" stop-opacity="0"/>
      <stop offset="100%" stop-color="#E86520" stop-opacity="0"/>
    </linearGradient>
    <linearGradient id="edgeBotGrad" x1="0%" y1="0%" x2="100%" y2="0%">
      <stop offset="0%"   stop-color="#E86520" stop-opacity="0"/>
      <stop offset="100%" stop-color="#E86520" stop-opacity="0.3"/>
    </linearGradient>
    <linearGradient id="accentLineGrad" x1="0%" y1="0%" x2="0%" y2="100%">
      <stop offset="0%"   stop-color="#E86520" stop-opacity="0"/>
      <stop offset="30%"  stop-color="#E86520" stop-opacity="0.3"/>
      <stop offset="50%"  stop-color="#E86520" stop-opacity="0.6"/>
      <stop offset="70%"  stop-color="#E86520" stop-opacity="0.3"/>
      <stop offset="100%" stop-color="#E86520" stop-opacity="0"/>
    </linearGradient>
    <linearGradient id="accentLine2Grad" x1="0%" y1="0%" x2="0%" y2="100%">
      <stop offset="0%"   stop-color="#E86520" stop-opacity="0"/>
      <stop offset="50%"  stop-color="#E86520" stop-opacity="0.2"/>
      <stop offset="100%" stop-color="#E86520" stop-opacity="0"/>
    </linearGradient>
    <linearGradient id="sepGrad" x1="0%" y1="0%" x2="100%" y2="0%">
      <stop offset="0%"   stop-color="#E86520" stop-opacity="1"/>
      <stop offset="100%" stop-color="#E86520" stop-opacity="0"/>
    </linearGradient>
  
  </defs>

  <!-- L1: 무광 배경 (Matte Background) -->
  <g id="l1-matte-bg"
     inkscape:groupmode="layer"
     inkscape:label="L1 무광 배경 (Matte Background)">
    <rect x="0" y="0" width="1120" height="700" fill="#000000" color="icc-color(FOGRA39, 0, 0, 0, 1)"/>
    <g id="l1-card" transform="translate(35, 50)">
      
    <rect x="0" y="0" width="1050" height="600" fill="#000000" color="icc-color(FOGRA39, 0, 0, 0, 1)"/>
    <rect x="0" y="0" width="1050" height="600" fill="url(#gridpat)"/>
    <rect x="850" y="598" width="200" height="2" fill="url(#edgeBotGrad)"/>
  
    </g>
  </g>

  <!-- L2: 무광 텍스트 (Matte Text  same laminate pass as L1) -->
  <g id="l2-matte-text"
     inkscape:groupmode="layer"
     inkscape:label="L2 무광 텍스트 (Matte Text)">
    <g transform="translate(35, 50)">
      
    <line x1="56" y1="180" x2="96" y2="180"
      stroke="url(#sepGrad)" stroke-width="1"/>
    <path fill="#595959" color="icc-color(FOGRA39, 0, 0, 0, 0.651)" d="M57.633 195.730L56.575 195.730L58.760 187.335L60.151 187.335L62.325 195.730L61.279 195.730L60.727 193.499L58.185 193.499L57.633 195.730ZM59.036 190.026L58.392 192.625L60.508 192.625L59.864 190.037Q59.680 189.301 59.577 188.807Q59.473 188.313 59.450 188.163L59.450 188.163Q59.427 188.313 59.324 188.807Q59.220 189.301 59.036 190.026L59.036 190.026Z M66.338 195.845L66.338 195.845Q65.246 195.845 64.590 195.195Q63.935 194.546 63.935 193.430L63.935 193.430L63.935 189.405L64.970 189.405L64.970 193.430Q64.970 194.143 65.338 194.540Q65.706 194.936 66.338 194.936L66.338 194.936Q66.983 194.936 67.356 194.540Q67.730 194.143 67.730 193.430L67.730 193.430L67.730 189.405L68.765 189.405L68.765 193.430Q68.765 194.546 68.098 195.195Q67.431 195.845 66.338 195.845Z M75.665 195.730L73.940 195.730Q73.123 195.730 72.669 195.293Q72.215 194.856 72.215 194.063L72.215 194.063L72.215 190.348L70.432 190.348L70.432 189.405L72.215 189.405L72.215 187.623L73.250 187.623L73.250 189.405L75.780 189.405L75.780 190.348L73.250 190.348L73.250 194.063Q73.250 194.787 73.940 194.787L73.940 194.787L75.665 194.787L75.665 195.730Z M80.150 195.822L80.150 195.822Q79.391 195.822 78.839 195.534Q78.287 195.247 77.982 194.701Q77.678 194.154 77.678 193.407L77.678 193.407L77.678 191.728Q77.678 190.969 77.982 190.428Q78.287 189.888 78.839 189.600Q79.391 189.313 80.150 189.313L80.150 189.313Q80.909 189.313 81.461 189.600Q82.013 189.888 82.318 190.428Q82.623 190.969 82.623 191.716L82.623 191.716L82.623 193.407Q82.623 194.154 82.318 194.701Q82.013 195.247 81.461 195.534Q80.909 195.822 80.150 195.822ZM80.150 194.902L80.150 194.902Q80.829 194.902 81.208 194.522Q81.588 194.143 81.588 193.407L81.588 193.407L81.588 191.728Q81.588 190.992 81.208 190.612Q80.829 190.233 80.150 190.233L80.150 190.233Q79.483 190.233 79.098 190.612Q78.713 190.992 78.713 191.728L78.713 191.728L78.713 193.407Q78.713 194.143 79.098 194.522Q79.483 194.902 80.150 194.902Z M85.693 195.730L84.658 195.730L84.658 189.405L85.693 189.405L85.693 190.612L85.705 190.612Q85.774 190.037 86.142 189.692L86.142 189.692Q86.590 189.290 87.384 189.290L87.384 189.290Q88.338 189.290 88.902 189.876Q89.465 190.463 89.465 191.475L89.465 191.475L89.465 195.730L88.430 195.730L88.430 191.590Q88.430 190.911 88.068 190.549Q87.706 190.187 87.085 190.187L87.085 190.187Q86.441 190.187 86.067 190.578Q85.693 190.969 85.693 191.705L85.693 191.705L85.693 195.730Z M93.950 195.822L93.950 195.822Q93.191 195.822 92.639 195.534Q92.087 195.247 91.782 194.701Q91.478 194.154 91.478 193.407L91.478 193.407L91.478 191.728Q91.478 190.969 91.782 190.428Q92.087 189.888 92.639 189.600Q93.191 189.313 93.950 189.313L93.950 189.313Q94.709 189.313 95.261 189.600Q95.813 189.888 96.118 190.428Q96.423 190.969 96.423 191.716L96.423 191.716L96.423 193.407Q96.423 194.154 96.118 194.701Q95.813 195.247 95.261 195.534Q94.709 195.822 93.950 195.822ZM93.950 194.902L93.950 194.902Q94.629 194.902 95.008 194.522Q95.388 194.143 95.388 193.407L95.388 193.407L95.388 191.728Q95.388 190.992 95.008 190.612Q94.629 190.233 93.950 190.233L93.950 190.233Q93.283 190.233 92.898 190.612Q92.513 190.992 92.513 191.728L92.513 191.728L92.513 193.407Q92.513 194.143 92.898 194.522Q93.283 194.902 93.950 194.902Z M99.114 195.730L98.159 195.730L98.159 189.405L99.068 189.405L99.068 190.164L99.137 190.164Q99.194 189.831 99.401 189.600L99.401 189.600Q99.677 189.290 100.160 189.290L100.160 189.290Q100.689 189.290 100.977 189.681L100.977 189.681Q101.126 189.876 101.195 190.164L101.195 190.164L101.241 190.164Q101.299 189.831 101.517 189.600L101.517 189.600Q101.805 189.290 102.288 189.290L102.288 189.290Q102.886 189.290 103.213 189.738Q103.541 190.187 103.541 190.923L103.541 190.923L103.541 195.730L102.587 195.730L102.587 190.911Q102.587 190.520 102.420 190.302Q102.253 190.083 101.931 190.083L101.931 190.083Q101.621 190.083 101.442 190.296Q101.264 190.509 101.264 190.900L101.264 190.900L101.264 195.730L100.436 195.730L100.436 190.911Q100.436 190.509 100.258 190.296Q100.080 190.083 99.758 190.083Q99.436 190.083 99.275 190.296Q99.114 190.509 99.114 190.900L99.114 190.900L99.114 195.730Z M107.750 195.822L107.750 195.822Q106.991 195.822 106.439 195.534Q105.887 195.247 105.582 194.701Q105.278 194.154 105.278 193.407L105.278 193.407L105.278 191.728Q105.278 190.969 105.582 190.428Q105.887 189.888 106.439 189.600Q106.991 189.313 107.750 189.313L107.750 189.313Q108.509 189.313 109.061 189.600Q109.613 189.888 109.918 190.428Q110.223 190.969 110.223 191.716L110.223 191.716L110.223 193.407Q110.223 194.154 109.918 194.701Q109.613 195.247 109.061 195.534Q108.509 195.822 107.750 195.822ZM107.750 194.902L107.750 194.902Q108.429 194.902 108.808 194.522Q109.188 194.143 109.188 193.407L109.188 193.407L109.188 191.728Q109.188 190.992 108.808 190.612Q108.429 190.233 107.750 190.233L107.750 190.233Q107.083 190.233 106.698 190.612Q106.313 190.992 106.313 191.728L106.313 191.728L106.313 193.407Q106.313 194.143 106.698 194.522Q107.083 194.902 107.750 194.902Z M114.639 195.845L114.639 195.845Q113.546 195.845 112.891 195.195Q112.235 194.546 112.235 193.430L112.235 193.430L112.235 189.405L113.270 189.405L113.270 193.430Q113.270 194.143 113.638 194.540Q114.006 194.936 114.639 194.936L114.639 194.936Q115.283 194.936 115.656 194.540Q116.030 194.143 116.030 193.430L116.030 193.430L116.030 189.405L117.065 189.405L117.065 193.430Q117.065 194.546 116.398 195.195Q115.731 195.845 114.639 195.845Z M121.838 195.822L121.355 195.822Q120.711 195.822 120.233 195.621Q119.756 195.419 119.474 195.051Q119.193 194.683 119.135 194.177L119.135 194.177L120.170 194.177Q120.239 194.511 120.544 194.706Q120.849 194.902 121.355 194.902L121.355 194.902L121.838 194.902Q122.447 194.902 122.746 194.655Q123.045 194.407 123.045 193.993L123.045 193.993Q123.045 193.591 122.775 193.355Q122.505 193.119 121.976 193.039L121.976 193.039L121.125 192.901Q120.193 192.740 119.739 192.320Q119.285 191.900 119.285 191.095L119.285 191.095Q119.285 190.244 119.825 189.779Q120.366 189.313 121.447 189.313L121.447 189.313L121.884 189.313Q122.792 189.313 123.344 189.738Q123.896 190.164 124.011 190.888L124.011 190.888L122.976 190.888Q122.907 190.589 122.631 190.411Q122.355 190.233 121.884 190.233L121.884 190.233L121.447 190.233Q120.860 190.233 120.590 190.451Q120.320 190.670 120.320 191.107L120.320 191.107Q120.320 191.498 120.550 191.682Q120.780 191.866 121.274 191.946L121.274 191.946L122.125 192.084Q123.149 192.245 123.614 192.682Q124.080 193.119 124.080 193.947L124.080 193.947Q124.080 194.821 123.522 195.322Q122.965 195.822 121.838 195.822L121.838 195.822Z M133.533 195.730L132.475 195.730L134.660 187.335L136.052 187.335L138.225 195.730L137.179 195.730L136.627 193.499L134.085 193.499L133.533 195.730ZM134.936 190.026L134.292 192.625L136.408 192.625L135.764 190.037Q135.580 189.301 135.477 188.807Q135.373 188.313 135.350 188.163L135.350 188.163Q135.327 188.313 135.224 188.807Q135.120 189.301 134.936 190.026L134.936 190.026Z M144.493 195.730L140.008 195.730L140.008 194.787L141.721 194.787L141.721 188.278L140.008 188.278L140.008 187.335L144.493 187.335L144.493 188.278L142.779 188.278L142.779 194.787L144.493 194.787L144.493 195.730Z M154.233 195.730L153.175 195.730L155.360 187.335L156.752 187.335L158.925 195.730L157.879 195.730L157.327 193.499L154.785 193.499L154.233 195.730ZM155.636 190.026L154.992 192.625L157.108 192.625L156.464 190.037Q156.280 189.301 156.177 188.807Q156.073 188.313 156.050 188.163L156.050 188.163Q156.027 188.313 155.924 188.807Q155.820 189.301 155.636 190.026L155.636 190.026Z M163.353 197.800L161.352 197.800L161.352 196.857L163.364 196.857Q163.847 196.857 164.071 196.638Q164.296 196.420 164.296 195.960L164.296 195.960L164.296 195.155L164.319 194.005L164.296 194.005Q164.250 194.569 163.847 194.925L163.847 194.925Q163.387 195.327 162.617 195.327L162.617 195.327Q161.639 195.327 161.076 194.689Q160.512 194.051 160.512 192.970L160.512 192.970L160.512 191.636Q160.512 190.555 161.076 189.922Q161.639 189.290 162.617 189.290L162.617 189.290Q163.387 189.290 163.847 189.692L163.847 189.692Q164.250 190.049 164.296 190.612L164.296 190.612L164.307 190.612L164.307 189.405L165.331 189.405L165.331 195.960Q165.331 196.811 164.807 197.305Q164.284 197.800 163.353 197.800L163.353 197.800ZM162.927 194.430L162.927 194.430Q163.571 194.430 163.939 194.028Q164.307 193.625 164.307 192.912L164.307 192.912L164.307 191.705Q164.307 190.992 163.939 190.589Q163.571 190.187 162.927 190.187L162.927 190.187Q162.272 190.187 161.909 190.578Q161.547 190.969 161.547 191.705L161.547 191.705L161.547 192.912Q161.547 193.648 161.909 194.040Q162.272 194.430 162.927 194.430Z M169.850 195.845L169.850 195.845Q169.103 195.845 168.545 195.546Q167.987 195.247 167.682 194.701Q167.378 194.154 167.378 193.430L167.378 193.430L167.378 191.705Q167.378 190.969 167.682 190.428Q167.987 189.888 168.545 189.589Q169.103 189.290 169.850 189.290Q170.598 189.290 171.155 189.589Q171.713 189.888 172.018 190.428Q172.323 190.969 172.323 191.705L172.323 191.705L172.323 192.820L168.390 192.820L168.390 193.430Q168.390 194.177 168.769 194.574Q169.149 194.971 169.850 194.971L169.850 194.971Q170.448 194.971 170.816 194.758Q171.184 194.546 171.265 194.120L171.265 194.120L172.300 194.120Q172.196 194.913 171.523 195.379Q170.851 195.845 169.850 195.845ZM168.390 192.038L171.311 192.038L171.311 191.705Q171.311 190.957 170.937 190.555Q170.563 190.153 169.850 190.153L169.850 190.153Q169.149 190.153 168.769 190.555Q168.390 190.957 168.390 191.705L168.390 191.705L168.390 192.038Z M175.393 195.730L174.358 195.730L174.358 189.405L175.393 189.405L175.393 190.612L175.405 190.612Q175.474 190.037 175.842 189.692L175.842 189.692Q176.290 189.290 177.084 189.290L177.084 189.290Q178.038 189.290 178.602 189.876Q179.165 190.463 179.165 191.475L179.165 191.475L179.165 195.730L178.130 195.730L178.130 191.590Q178.130 190.911 177.768 190.549Q177.406 190.187 176.785 190.187L176.785 190.187Q176.141 190.187 175.767 190.578Q175.393 190.969 175.393 191.705L175.393 191.705L175.393 195.730Z M186.065 195.730L184.340 195.730Q183.524 195.730 183.069 195.293Q182.615 194.856 182.615 194.063L182.615 194.063L182.615 190.348L180.833 190.348L180.833 189.405L182.615 189.405L182.615 187.623L183.650 187.623L183.650 189.405L186.180 189.405L186.180 190.348L183.650 190.348L183.650 194.063Q183.650 194.787 184.340 194.787L184.340 194.787L186.065 194.787L186.065 195.730Z M196.093 195.730L195.058 195.730L195.058 187.335L197.761 187.335Q198.543 187.335 199.118 187.640Q199.693 187.944 200.009 188.496Q200.325 189.048 200.325 189.807L200.325 189.807Q200.325 190.555 200.009 191.113Q199.693 191.671 199.118 191.975Q198.543 192.280 197.761 192.280L197.761 192.280L196.093 192.280L196.093 195.730ZM196.093 188.266L196.093 191.349L197.761 191.349Q198.439 191.349 198.847 190.929Q199.256 190.509 199.256 189.807L199.256 189.807Q199.256 189.094 198.847 188.680Q198.439 188.266 197.761 188.266L197.761 188.266L196.093 188.266Z M207.225 195.730L205.213 195.730Q204.661 195.730 204.247 195.511Q203.833 195.293 203.603 194.891Q203.373 194.488 203.373 193.947L203.373 193.947L203.373 188.278L201.245 188.278L201.245 187.335L204.408 187.335L204.408 193.947Q204.408 194.338 204.626 194.563Q204.845 194.787 205.213 194.787L205.213 194.787L207.225 194.787L207.225 195.730Z M210.698 195.845L210.698 195.845Q209.698 195.845 209.123 195.333Q208.548 194.821 208.548 193.947L208.548 193.947Q208.548 193.062 209.123 192.556Q209.698 192.050 210.675 192.050L210.675 192.050L212.630 192.050L212.630 191.417Q212.630 190.831 212.279 190.515Q211.929 190.198 211.285 190.198L211.285 190.198Q210.721 190.198 210.342 190.434Q209.962 190.670 209.905 191.072L209.905 191.072L208.870 191.072Q208.973 190.256 209.640 189.773Q210.307 189.290 211.308 189.290L211.308 189.290Q212.400 189.290 213.033 189.853Q213.665 190.417 213.665 191.383L213.665 191.383L213.665 195.730L212.653 195.730L212.653 194.522L212.642 194.522Q212.584 195.086 212.124 195.442L212.124 195.442Q211.584 195.845 210.698 195.845ZM210.951 195.028L210.951 195.028Q211.687 195.028 212.159 194.660Q212.630 194.292 212.630 193.718L212.630 193.718L212.630 192.820L210.698 192.820Q210.181 192.820 209.882 193.108Q209.583 193.395 209.583 193.890L209.583 193.890Q209.583 194.419 209.945 194.724Q210.307 195.028 210.951 195.028Z M220.565 195.730L218.840 195.730Q218.024 195.730 217.569 195.293Q217.115 194.856 217.115 194.063L217.115 194.063L217.115 190.348L215.333 190.348L215.333 189.405L217.115 189.405L217.115 187.623L218.150 187.623L218.150 189.405L220.680 189.405L220.680 190.348L218.150 190.348L218.150 194.063Q218.150 194.787 218.840 194.787L218.840 194.787L220.565 194.787L220.565 195.730Z M225.165 195.730L224.130 195.730L224.130 190.980L222.290 190.980L222.290 190.037L224.130 190.037L224.130 188.945Q224.130 188.197 224.602 187.766Q225.073 187.335 225.901 187.335L225.901 187.335L227.753 187.335L227.753 188.278L225.901 188.278Q225.545 188.278 225.355 188.445Q225.165 188.611 225.165 188.945L225.165 188.945L225.165 190.037L227.753 190.037L227.753 190.980L225.165 190.980L225.165 195.730Z M231.950 195.822L231.950 195.822Q231.191 195.822 230.639 195.534Q230.087 195.247 229.782 194.701Q229.478 194.154 229.478 193.407L229.478 193.407L229.478 191.728Q229.478 190.969 229.782 190.428Q230.087 189.888 230.639 189.600Q231.191 189.313 231.950 189.313L231.950 189.313Q232.709 189.313 233.261 189.600Q233.813 189.888 234.118 190.428Q234.423 190.969 234.423 191.716L234.423 191.716L234.423 193.407Q234.423 194.154 234.118 194.701Q233.813 195.247 233.261 195.534Q232.709 195.822 231.950 195.822ZM231.950 194.902L231.950 194.902Q232.629 194.902 233.008 194.522Q233.388 194.143 233.388 193.407L233.388 193.407L233.388 191.728Q233.388 190.992 233.008 190.612Q232.629 190.233 231.950 190.233L231.950 190.233Q231.283 190.233 230.898 190.612Q230.513 190.992 230.513 191.728L230.513 191.728L230.513 193.407Q230.513 194.143 230.898 194.522Q231.283 194.902 231.950 194.902Z M237.712 195.730L236.677 195.730L236.677 189.405L237.689 189.405L237.689 190.532Q237.804 190.095 238.045 189.807L238.045 189.807Q238.482 189.290 239.356 189.290L239.356 189.290Q240.357 189.290 240.949 189.917Q241.541 190.543 241.541 191.613L241.541 191.613L241.541 191.992L240.506 191.992L240.506 191.705Q240.506 190.957 240.144 190.561Q239.782 190.164 239.115 190.164L239.115 190.164Q238.459 190.164 238.085 190.566Q237.712 190.969 237.712 191.705L237.712 191.705L237.712 195.730Z M244.014 195.730L243.059 195.730L243.059 189.405L243.968 189.405L243.968 190.164L244.037 190.164Q244.094 189.831 244.301 189.600L244.301 189.600Q244.577 189.290 245.060 189.290L245.060 189.290Q245.589 189.290 245.877 189.681L245.877 189.681Q246.026 189.876 246.095 190.164L246.095 190.164L246.141 190.164Q246.199 189.831 246.417 189.600L246.417 189.600Q246.705 189.290 247.188 189.290L247.188 189.290Q247.786 189.290 248.113 189.738Q248.441 190.187 248.441 190.923L248.441 190.923L248.441 195.730L247.487 195.730L247.487 190.911Q247.487 190.520 247.320 190.302Q247.153 190.083 246.831 190.083L246.831 190.083Q246.521 190.083 246.342 190.296Q246.164 190.509 246.164 190.900L246.164 190.900L246.164 195.730L245.336 195.730L245.336 190.911Q245.336 190.509 245.158 190.296Q244.980 190.083 244.658 190.083Q244.336 190.083 244.175 190.296Q244.014 190.509 244.014 190.900L244.014 190.900L244.014 195.730Z"/>
    <g transform="translate(56, 513.0)" opacity="0.45">
      <rect x="0" y="2" width="14" height="10" rx="1.5"
        stroke="#E86520" stroke-width="1.5" fill="none"/>
      <path d="M0 4 L7 8 L14 4" stroke="#E86520" stroke-width="1.5" fill="none"/>
    </g>
    <path fill="#999999" color="icc-color(FOGRA39, 0, 0, 0, 0.4)" d="M83.496 524.845L83.496 524.845Q82.737 524.845 82.168 524.558Q81.599 524.270 81.288 523.724Q80.978 523.178 80.978 522.430L80.978 522.430L80.978 520.705Q80.978 519.946 81.288 519.406Q81.599 518.865 82.168 518.577Q82.737 518.290 83.496 518.290L83.496 518.290Q84.588 518.290 85.255 518.876Q85.922 519.463 85.957 520.475L85.957 520.475L84.922 520.475Q84.888 519.865 84.514 519.538Q84.140 519.210 83.496 519.210L83.496 519.210Q82.817 519.210 82.415 519.595Q82.013 519.981 82.013 520.693L82.013 520.693L82.013 522.430Q82.013 523.143 82.415 523.534Q82.817 523.925 83.496 523.925L83.496 523.925Q84.140 523.925 84.514 523.591Q84.888 523.258 84.922 522.660L84.922 522.660L85.957 522.660Q85.922 523.672 85.255 524.259Q84.588 524.845 83.496 524.845Z M90.350 524.845L90.350 524.845Q89.603 524.845 89.045 524.546Q88.487 524.247 88.182 523.701Q87.878 523.154 87.878 522.430L87.878 522.430L87.878 520.705Q87.878 519.969 88.182 519.428Q88.487 518.888 89.045 518.589Q89.603 518.290 90.350 518.290Q91.098 518.290 91.655 518.589Q92.213 518.888 92.518 519.428Q92.823 519.969 92.823 520.705L92.823 520.705L92.823 521.821L88.890 521.821L88.890 522.430Q88.890 523.178 89.269 523.574Q89.649 523.971 90.350 523.971L90.350 523.971Q90.948 523.971 91.316 523.758Q91.684 523.546 91.764 523.120L91.764 523.120L92.800 523.120Q92.696 523.913 92.023 524.379Q91.351 524.845 90.350 524.845ZM88.890 521.038L91.811 521.038L91.811 520.705Q91.811 519.957 91.437 519.555Q91.063 519.153 90.350 519.153L90.350 519.153Q89.649 519.153 89.269 519.555Q88.890 519.957 88.890 520.705L88.890 520.705L88.890 521.038Z M97.250 524.822L97.250 524.822Q96.491 524.822 95.939 524.534Q95.387 524.247 95.082 523.701Q94.778 523.154 94.778 522.407L94.778 522.407L94.778 520.728Q94.778 519.969 95.082 519.428Q95.387 518.888 95.939 518.601Q96.491 518.313 97.250 518.313L97.250 518.313Q98.009 518.313 98.561 518.601Q99.113 518.888 99.418 519.428Q99.723 519.969 99.723 520.716L99.723 520.716L99.723 522.407Q99.723 523.154 99.418 523.701Q99.113 524.247 98.561 524.534Q98.009 524.822 97.250 524.822ZM97.250 523.902L97.250 523.902Q97.929 523.902 98.308 523.523Q98.688 523.143 98.688 522.407L98.688 522.407L98.688 520.728Q98.688 519.992 98.308 519.613Q97.929 519.233 97.250 519.233L97.250 519.233Q96.583 519.233 96.198 519.613Q95.813 519.992 95.813 520.728L95.813 520.728L95.813 522.407Q95.813 523.143 96.198 523.523Q96.583 523.902 97.250 523.902Z M105.243 526.800L104.438 526.800Q103.460 526.800 102.736 526.392Q102.011 525.984 101.614 525.230Q101.218 524.477 101.218 523.465L101.218 523.465L101.218 519.555Q101.218 518.520 101.591 517.773Q101.965 517.025 102.661 516.623Q103.357 516.220 104.323 516.220L104.323 516.220Q105.197 516.220 105.829 516.559Q106.462 516.899 106.801 517.531Q107.140 518.163 107.140 519.038L107.140 519.038L107.140 523.983L106.324 523.983L106.324 523.350L106.197 523.350Q106.128 523.638 105.887 523.822L105.887 523.822Q105.553 524.097 105.001 524.097L105.001 524.097Q104.254 524.097 103.857 523.643Q103.460 523.189 103.460 522.315L103.460 522.315L103.460 520.935Q103.460 520.061 103.857 519.607Q104.254 519.153 105.001 519.153L105.001 519.153Q105.553 519.153 105.887 519.417L105.887 519.417Q106.128 519.613 106.197 519.900L106.197 519.900L106.335 519.900L106.220 519.095L106.220 519.038Q106.220 518.382 106.002 517.933Q105.783 517.485 105.363 517.255Q104.944 517.025 104.323 517.025L104.323 517.025Q103.288 517.025 102.713 517.692Q102.138 518.359 102.138 519.555L102.138 519.555L102.138 523.465Q102.138 524.615 102.753 525.276Q103.368 525.938 104.438 525.938L104.438 525.938L105.243 525.938L105.243 526.800ZM105.300 523.373L105.300 523.373Q105.772 523.373 105.996 523.086Q106.220 522.798 106.220 522.200L106.220 522.200L106.220 520.923Q106.220 520.383 105.996 520.130Q105.772 519.877 105.300 519.877L105.300 519.877Q104.840 519.877 104.610 520.136Q104.380 520.394 104.380 520.935L104.380 520.935L104.380 522.315Q104.380 522.856 104.610 523.114Q104.840 523.373 105.300 523.373Z M111.050 524.822L111.050 524.822Q110.291 524.822 109.739 524.534Q109.187 524.247 108.882 523.701Q108.578 523.154 108.578 522.407L108.578 522.407L108.578 520.728Q108.578 519.969 108.882 519.428Q109.187 518.888 109.739 518.601Q110.291 518.313 111.050 518.313L111.050 518.313Q111.809 518.313 112.361 518.601Q112.913 518.888 113.218 519.428Q113.523 519.969 113.523 520.716L113.523 520.716L113.523 522.407Q113.523 523.154 113.218 523.701Q112.913 524.247 112.361 524.534Q111.809 524.822 111.050 524.822ZM111.050 523.902L111.050 523.902Q111.729 523.902 112.108 523.523Q112.488 523.143 112.488 522.407L112.488 522.407L112.488 520.728Q112.488 519.992 112.108 519.613Q111.729 519.233 111.050 519.233L111.050 519.233Q110.383 519.233 109.998 519.613Q109.613 519.992 109.613 520.728L109.613 520.728L109.613 522.407Q109.613 523.143 109.998 523.523Q110.383 523.902 111.050 523.902Z M118.353 526.800L116.352 526.800L116.352 525.857L118.364 525.857Q118.847 525.857 119.071 525.639Q119.296 525.420 119.296 524.960L119.296 524.960L119.296 524.155L119.319 523.005L119.296 523.005Q119.250 523.568 118.847 523.925L118.847 523.925Q118.387 524.327 117.617 524.327L117.617 524.327Q116.639 524.327 116.076 523.689Q115.512 523.051 115.512 521.970L115.512 521.970L115.512 520.636Q115.512 519.555 116.076 518.923Q116.639 518.290 117.617 518.290L117.617 518.290Q118.387 518.290 118.847 518.692L118.847 518.692Q119.250 519.049 119.296 519.613L119.296 519.613L119.307 519.613L119.307 518.405L120.331 518.405L120.331 524.960Q120.331 525.811 119.807 526.306Q119.284 526.800 118.353 526.800L118.353 526.800ZM117.927 523.431L117.927 523.431Q118.571 523.431 118.939 523.028Q119.307 522.625 119.307 521.913L119.307 521.913L119.307 520.705Q119.307 519.992 118.939 519.590Q118.571 519.187 117.927 519.187L117.927 519.187Q117.272 519.187 116.909 519.578Q116.547 519.969 116.547 520.705L116.547 520.705L116.547 521.913Q116.547 522.649 116.909 523.039Q117.272 523.431 117.927 523.431Z M124.850 524.845L124.850 524.845Q124.103 524.845 123.545 524.546Q122.987 524.247 122.682 523.701Q122.378 523.154 122.378 522.430L122.378 522.430L122.378 520.705Q122.378 519.969 122.682 519.428Q122.987 518.888 123.545 518.589Q124.103 518.290 124.850 518.290Q125.598 518.290 126.155 518.589Q126.713 518.888 127.018 519.428Q127.323 519.969 127.323 520.705L127.323 520.705L127.323 521.821L123.390 521.821L123.390 522.430Q123.390 523.178 123.769 523.574Q124.149 523.971 124.850 523.971L124.850 523.971Q125.448 523.971 125.816 523.758Q126.184 523.546 126.265 523.120L126.265 523.120L127.300 523.120Q127.196 523.913 126.523 524.379Q125.851 524.845 124.850 524.845ZM123.390 521.038L126.311 521.038L126.311 520.705Q126.311 519.957 125.937 519.555Q125.563 519.153 124.850 519.153L124.850 519.153Q124.149 519.153 123.769 519.555Q123.390 519.957 123.390 520.705L123.390 520.705L123.390 521.038Z M130.393 524.730L129.358 524.730L129.358 518.405L130.393 518.405L130.393 519.613L130.405 519.613Q130.474 519.038 130.842 518.692L130.842 518.692Q131.290 518.290 132.084 518.290L132.084 518.290Q133.038 518.290 133.602 518.876Q134.165 519.463 134.165 520.475L134.165 520.475L134.165 524.730L133.130 524.730L133.130 520.590Q133.130 519.912 132.768 519.549Q132.406 519.187 131.785 519.187L131.785 519.187Q131.141 519.187 130.767 519.578Q130.393 519.969 130.393 520.705L130.393 520.705L130.393 524.730Z M141.065 524.730L139.340 524.730Q138.524 524.730 138.069 524.293Q137.615 523.856 137.615 523.063L137.615 523.063L137.615 519.348L135.833 519.348L135.833 518.405L137.615 518.405L137.615 516.623L138.650 516.623L138.650 518.405L141.180 518.405L141.180 519.348L138.650 519.348L138.650 523.063Q138.650 523.787 139.340 523.787L139.340 523.787L141.065 523.787L141.065 524.730Z M148.483 524.730L143.078 524.730L143.078 523.787L145.320 523.787L145.320 519.348L143.365 519.348L143.365 518.405L146.355 518.405L146.355 523.787L148.483 523.787L148.483 524.730ZM145.723 517.267L145.723 517.267Q145.343 517.267 145.125 517.071Q144.906 516.875 144.906 516.542L144.906 516.542Q144.906 516.197 145.125 515.996Q145.343 515.794 145.723 515.794L145.723 515.794Q146.102 515.794 146.321 515.996Q146.539 516.197 146.539 516.542L146.539 516.542Q146.539 516.875 146.321 517.071Q146.102 517.267 145.723 517.267Z M152.450 524.845L152.450 524.845Q152.013 524.845 151.754 524.592Q151.496 524.339 151.496 523.913L151.496 523.913Q151.496 523.465 151.754 523.201Q152.013 522.936 152.450 522.936L152.450 522.936Q152.887 522.936 153.146 523.201Q153.405 523.465 153.405 523.913L153.405 523.913Q153.405 524.339 153.146 524.592Q152.887 524.845 152.450 524.845Z M159.396 524.845L159.396 524.845Q158.637 524.845 158.068 524.558Q157.499 524.270 157.188 523.724Q156.878 523.178 156.878 522.430L156.878 522.430L156.878 520.705Q156.878 519.946 157.188 519.406Q157.499 518.865 158.068 518.577Q158.637 518.290 159.396 518.290L159.396 518.290Q160.489 518.290 161.156 518.876Q161.823 519.463 161.857 520.475L161.857 520.475L160.822 520.475Q160.788 519.865 160.414 519.538Q160.040 519.210 159.396 519.210L159.396 519.210Q158.718 519.210 158.315 519.595Q157.913 519.981 157.913 520.693L157.913 520.693L157.913 522.430Q157.913 523.143 158.315 523.534Q158.718 523.925 159.396 523.925L159.396 523.925Q160.040 523.925 160.414 523.591Q160.788 523.258 160.822 522.660L160.822 522.660L161.857 522.660Q161.823 523.672 161.156 524.259Q160.489 524.845 159.396 524.845Z M166.250 524.822L166.250 524.822Q165.491 524.822 164.939 524.534Q164.387 524.247 164.082 523.701Q163.778 523.154 163.778 522.407L163.778 522.407L163.778 520.728Q163.778 519.969 164.082 519.428Q164.387 518.888 164.939 518.601Q165.491 518.313 166.250 518.313L166.250 518.313Q167.009 518.313 167.561 518.601Q168.113 518.888 168.418 519.428Q168.723 519.969 168.723 520.716L168.723 520.716L168.723 522.407Q168.723 523.154 168.418 523.701Q168.113 524.247 167.561 524.534Q167.009 524.822 166.250 524.822ZM166.250 523.902L166.250 523.902Q166.929 523.902 167.308 523.523Q167.688 523.143 167.688 522.407L167.688 522.407L167.688 520.728Q167.688 519.992 167.308 519.613Q166.929 519.233 166.250 519.233L166.250 519.233Q165.583 519.233 165.198 519.613Q164.813 519.992 164.813 520.728L164.813 520.728L164.813 522.407Q164.813 523.143 165.198 523.523Q165.583 523.902 166.250 523.902Z M171.414 524.730L170.459 524.730L170.459 518.405L171.368 518.405L171.368 519.164L171.437 519.164Q171.494 518.831 171.701 518.601L171.701 518.601Q171.977 518.290 172.460 518.290L172.460 518.290Q172.989 518.290 173.277 518.681L173.277 518.681Q173.426 518.876 173.495 519.164L173.495 519.164L173.541 519.164Q173.599 518.831 173.817 518.601L173.817 518.601Q174.105 518.290 174.588 518.290L174.588 518.290Q175.186 518.290 175.513 518.739Q175.841 519.187 175.841 519.923L175.841 519.923L175.841 524.730L174.887 524.730L174.887 519.912Q174.887 519.520 174.720 519.302Q174.553 519.084 174.231 519.084L174.231 519.084Q173.921 519.084 173.742 519.296Q173.564 519.509 173.564 519.900L173.564 519.900L173.564 524.730L172.736 524.730L172.736 519.912Q172.736 519.509 172.558 519.296Q172.380 519.084 172.058 519.084Q171.736 519.084 171.575 519.296Q171.414 519.509 171.414 519.900L171.414 519.900L171.414 524.730Z"/>
    <g transform="translate(56, 534.0)" opacity="0.45">
      <circle cx="7" cy="7" r="6" stroke="#E86520" stroke-width="1.5" fill="none"/>
      <path d="M1 7 L13 7 M7 1 Q10.5 4 10.5 7 Q10.5 10 7 13 Q3.5 10 3.5 7 Q3.5 4 7 1"
        stroke="#E86520" stroke-width="1.5" fill="none"/>
    </g>
    <path fill="#999999" color="icc-color(FOGRA39, 0, 0, 0, 0.4)" d="M83.450 545.822L83.450 545.822Q82.691 545.822 82.139 545.534Q81.587 545.247 81.282 544.701Q80.978 544.154 80.978 543.407L80.978 543.407L80.978 541.728Q80.978 540.969 81.282 540.428Q81.587 539.888 82.139 539.601Q82.691 539.313 83.450 539.313L83.450 539.313Q84.209 539.313 84.761 539.601Q85.313 539.888 85.618 540.428Q85.922 540.969 85.922 541.716L85.922 541.716L85.922 543.407Q85.922 544.154 85.618 544.701Q85.313 545.247 84.761 545.534Q84.209 545.822 83.450 545.822ZM83.450 544.902L83.450 544.902Q84.129 544.902 84.508 544.523Q84.888 544.143 84.888 543.407L84.888 543.407L84.888 541.728Q84.888 540.992 84.508 540.613Q84.129 540.233 83.450 540.233L83.450 540.233Q82.783 540.233 82.398 540.613Q82.013 540.992 82.013 541.728L82.013 541.728L82.013 543.407Q82.013 544.143 82.398 544.523Q82.783 544.902 83.450 544.902Z M90.753 547.800L88.752 547.800L88.752 546.857L90.764 546.857Q91.247 546.857 91.471 546.639Q91.696 546.420 91.696 545.960L91.696 545.960L91.696 545.155L91.719 544.005L91.696 544.005Q91.650 544.568 91.247 544.925L91.247 544.925Q90.787 545.327 90.017 545.327L90.017 545.327Q89.039 545.327 88.476 544.689Q87.912 544.051 87.912 542.970L87.912 542.970L87.912 541.636Q87.912 540.555 88.476 539.923Q89.039 539.290 90.017 539.290L90.017 539.290Q90.787 539.290 91.247 539.692L91.247 539.692Q91.650 540.049 91.696 540.613L91.696 540.613L91.707 540.613L91.707 539.405L92.731 539.405L92.731 545.960Q92.731 546.811 92.207 547.306Q91.684 547.800 90.753 547.800L90.753 547.800ZM90.327 544.431L90.327 544.431Q90.971 544.431 91.339 544.028Q91.707 543.625 91.707 542.913L91.707 542.913L91.707 541.705Q91.707 540.992 91.339 540.590Q90.971 540.187 90.327 540.187L90.327 540.187Q89.672 540.187 89.309 540.578Q88.947 540.969 88.947 541.705L88.947 541.705L88.947 542.913Q88.947 543.649 89.309 544.039Q89.672 544.431 90.327 544.431Z M97.250 545.845L97.250 545.845Q96.503 545.845 95.945 545.546Q95.387 545.247 95.082 544.701Q94.778 544.154 94.778 543.430L94.778 543.430L94.778 541.705Q94.778 540.969 95.082 540.428Q95.387 539.888 95.945 539.589Q96.503 539.290 97.250 539.290Q97.998 539.290 98.555 539.589Q99.113 539.888 99.418 540.428Q99.723 540.969 99.723 541.705L99.723 541.705L99.723 542.821L95.790 542.821L95.790 543.430Q95.790 544.178 96.169 544.574Q96.549 544.971 97.250 544.971L97.250 544.971Q97.848 544.971 98.216 544.758Q98.584 544.546 98.665 544.120L98.665 544.120L99.700 544.120Q99.596 544.913 98.923 545.379Q98.251 545.845 97.250 545.845ZM95.790 542.038L98.711 542.038L98.711 541.705Q98.711 540.957 98.337 540.555Q97.963 540.153 97.250 540.153L97.250 540.153Q96.549 540.153 96.169 540.555Q95.790 540.957 95.790 541.705L95.790 541.705L95.790 542.038Z M102.793 545.730L101.758 545.730L101.758 539.405L102.793 539.405L102.793 540.613L102.805 540.613Q102.874 540.038 103.242 539.692L103.242 539.692Q103.690 539.290 104.484 539.290L104.484 539.290Q105.438 539.290 106.002 539.876Q106.565 540.463 106.565 541.475L106.565 541.475L106.565 545.730L105.530 545.730L105.530 541.590Q105.530 540.912 105.168 540.549Q104.806 540.187 104.185 540.187L104.185 540.187Q103.541 540.187 103.167 540.578Q102.793 540.969 102.793 541.705L102.793 541.705L102.793 545.730Z M113.465 545.730L111.740 545.730Q110.924 545.730 110.469 545.293Q110.015 544.856 110.015 544.063L110.015 544.063L110.015 540.348L108.233 540.348L108.233 539.405L110.015 539.405L110.015 537.623L111.050 537.623L111.050 539.405L113.580 539.405L113.580 540.348L111.050 540.348L111.050 544.063Q111.050 544.787 111.740 544.787L111.740 544.787L113.465 544.787L113.465 545.730Z M120.883 545.730L115.478 545.730L115.478 544.787L117.720 544.787L117.720 540.348L115.765 540.348L115.765 539.405L118.755 539.405L118.755 544.787L120.883 544.787L120.883 545.730ZM118.123 538.267L118.123 538.267Q117.743 538.267 117.525 538.071Q117.306 537.875 117.306 537.542L117.306 537.542Q117.306 537.197 117.525 536.996Q117.743 536.794 118.123 536.794L118.123 536.794Q118.502 536.794 118.721 536.996Q118.939 537.197 118.939 537.542L118.939 537.542Q118.939 537.875 118.721 538.071Q118.502 538.267 118.123 538.267Z M124.850 545.845L124.850 545.845Q124.413 545.845 124.154 545.592Q123.896 545.339 123.896 544.913L123.896 544.913Q123.896 544.465 124.154 544.201Q124.413 543.936 124.850 543.936L124.850 543.936Q125.287 543.936 125.546 544.201Q125.805 544.465 125.805 544.913L125.805 544.913Q125.805 545.339 125.546 545.592Q125.287 545.845 124.850 545.845Z M131.796 545.845L131.796 545.845Q131.037 545.845 130.468 545.558Q129.899 545.270 129.588 544.724Q129.278 544.178 129.278 543.430L129.278 543.430L129.278 541.705Q129.278 540.946 129.588 540.406Q129.899 539.865 130.468 539.577Q131.037 539.290 131.796 539.290L131.796 539.290Q132.889 539.290 133.556 539.876Q134.223 540.463 134.257 541.475L134.257 541.475L133.222 541.475Q133.188 540.865 132.814 540.538Q132.440 540.210 131.796 540.210L131.796 540.210Q131.118 540.210 130.715 540.595Q130.313 540.981 130.313 541.693L130.313 541.693L130.313 543.430Q130.313 544.143 130.715 544.534Q131.118 544.925 131.796 544.925L131.796 544.925Q132.440 544.925 132.814 544.591Q133.188 544.258 133.222 543.660L133.222 543.660L134.257 543.660Q134.223 544.672 133.556 545.259Q132.889 545.845 131.796 545.845Z M138.650 545.822L138.650 545.822Q137.891 545.822 137.339 545.534Q136.787 545.247 136.482 544.701Q136.178 544.154 136.178 543.407L136.178 543.407L136.178 541.728Q136.178 540.969 136.482 540.428Q136.787 539.888 137.339 539.601Q137.891 539.313 138.650 539.313L138.650 539.313Q139.409 539.313 139.961 539.601Q140.513 539.888 140.818 540.428Q141.123 540.969 141.123 541.716L141.123 541.716L141.123 543.407Q141.123 544.154 140.818 544.701Q140.513 545.247 139.961 545.534Q139.409 545.822 138.650 545.822ZM138.650 544.902L138.650 544.902Q139.329 544.902 139.708 544.523Q140.088 544.143 140.088 543.407L140.088 543.407L140.088 541.728Q140.088 540.992 139.708 540.613Q139.329 540.233 138.650 540.233L138.650 540.233Q137.983 540.233 137.598 540.613Q137.213 540.992 137.213 541.728L137.213 541.728L137.213 543.407Q137.213 544.143 137.598 544.523Q137.983 544.902 138.650 544.902Z M143.814 545.730L142.859 545.730L142.859 539.405L143.768 539.405L143.768 540.164L143.837 540.164Q143.894 539.831 144.101 539.601L144.101 539.601Q144.377 539.290 144.860 539.290L144.860 539.290Q145.389 539.290 145.677 539.681L145.677 539.681Q145.826 539.876 145.895 540.164L145.895 540.164L145.941 540.164Q145.999 539.831 146.217 539.601L146.217 539.601Q146.505 539.290 146.988 539.290L146.988 539.290Q147.586 539.290 147.913 539.739Q148.241 540.187 148.241 540.923L148.241 540.923L148.241 545.730L147.287 545.730L147.287 540.912Q147.287 540.520 147.120 540.302Q146.953 540.084 146.631 540.084L146.631 540.084Q146.321 540.084 146.142 540.296Q145.964 540.509 145.964 540.900L145.964 540.900L145.964 545.730L145.136 545.730L145.136 540.912Q145.136 540.509 144.958 540.296Q144.780 540.084 144.458 540.084Q144.136 540.084 143.975 540.296Q143.814 540.509 143.814 540.900L143.814 540.900L143.814 545.730Z"/>
    <path fill="#999999" color="icc-color(FOGRA39, 0, 0, 0, 0.4)" d="M911.125 535.100L909.292 535.100L909.292 533.800L911.086 533.800Q911.801 533.800 912.204 533.410Q912.607 533.020 912.607 532.305L912.607 532.305L912.607 526.897L909.682 526.897L909.682 525.610L914.011 525.610L914.011 532.318Q914.011 533.605 913.231 534.352Q912.451 535.100 911.125 535.100L911.125 535.100ZM913.244 524.375L913.244 524.375Q912.789 524.375 912.516 524.135Q912.243 523.894 912.243 523.491L912.243 523.491Q912.243 523.075 912.516 522.834Q912.789 522.594 913.244 522.594L913.244 522.594Q913.699 522.594 913.972 522.834Q914.245 523.075 914.245 523.491L914.245 523.491Q914.245 523.894 913.972 524.135Q913.699 524.375 913.244 524.375Z M919.887 532.890L919.887 532.890Q918.600 532.890 917.833 532.143Q917.066 531.395 917.066 530.108L917.066 530.108L917.066 525.610L918.470 525.610L918.470 530.108Q918.470 530.849 918.847 531.259Q919.224 531.668 919.887 531.668L919.887 531.668Q920.563 531.668 920.947 531.259Q921.330 530.849 921.330 530.108L921.330 530.108L921.330 525.610L922.734 525.610L922.734 530.108Q922.734 531.395 921.961 532.143Q921.187 532.890 919.887 532.890Z M928.012 532.877L927.453 532.877Q926.686 532.877 926.107 532.630Q925.529 532.383 925.197 531.947Q924.866 531.512 924.814 530.914L924.814 530.914L926.218 530.914Q926.270 531.265 926.595 531.480Q926.920 531.694 927.453 531.694L927.453 531.694L928.012 531.694Q928.649 531.694 928.974 531.434Q929.299 531.174 929.299 530.745L929.299 530.745Q929.299 530.329 929.006 530.088Q928.714 529.848 928.142 529.770L928.142 529.770L927.219 529.627Q926.075 529.445 925.535 528.971Q924.996 528.496 924.996 527.560L924.996 527.560Q924.996 526.572 925.639 526.033Q926.283 525.493 927.544 525.493L927.544 525.493L928.038 525.493Q929.156 525.493 929.825 526.006Q930.495 526.520 930.586 527.378L930.586 527.378L929.182 527.378Q929.130 527.066 928.837 526.871Q928.545 526.676 928.038 526.676L928.038 526.676L927.544 526.676Q926.933 526.676 926.654 526.904Q926.374 527.131 926.374 527.573L926.374 527.573Q926.374 527.963 926.621 528.158Q926.868 528.353 927.388 528.431L927.388 528.431L928.337 528.587Q929.546 528.756 930.111 529.256Q930.677 529.757 930.677 530.706L930.677 530.706Q930.677 531.733 930.007 532.305Q929.338 532.877 928.012 532.877L928.012 532.877Z M938.282 532.760L936.280 532.760Q935.305 532.760 934.759 532.227Q934.213 531.694 934.213 530.745L934.213 530.745L934.213 526.884L932.237 526.884L932.237 525.610L934.213 525.610L934.213 523.595L935.617 523.595L935.617 525.610L938.412 525.610L938.412 526.884L935.617 526.884L935.617 530.745Q935.617 531.486 936.332 531.486L936.332 531.486L938.282 531.486L938.282 532.760Z M950.164 532.760L948.669 532.760L947.564 525.610L948.747 525.610L949.410 530.329Q949.462 530.654 949.507 531.050Q949.553 531.447 949.579 531.707L949.579 531.707Q949.605 531.447 949.663 531.057Q949.722 530.667 949.774 530.329L949.774 530.329L950.515 525.610L951.698 525.610L952.426 530.329Q952.478 530.667 952.536 531.063Q952.595 531.460 952.621 531.720L952.621 531.720Q952.647 531.447 952.705 531.050Q952.764 530.654 952.816 530.329L952.816 530.329L953.492 525.610L954.636 525.610L953.492 532.760L952.010 532.760L951.308 528.093Q951.256 527.729 951.191 527.319Q951.126 526.910 951.100 526.663L951.100 526.663Q951.061 526.910 951.009 527.313L951.009 527.313L950.892 528.093L950.164 532.760Z M958.185 532.890L958.185 532.890Q957.067 532.890 956.423 532.312Q955.780 531.733 955.780 530.732L955.780 530.732Q955.780 529.718 956.462 529.139Q957.145 528.561 958.341 528.561L958.341 528.561L960.330 528.561L960.330 527.898Q960.330 527.313 959.966 526.988Q959.602 526.663 958.939 526.663L958.939 526.663Q958.354 526.663 957.964 526.917Q957.574 527.170 957.509 527.586L957.509 527.586L956.131 527.586Q956.248 526.624 957.021 526.052Q957.795 525.480 958.978 525.480L958.978 525.480Q960.252 525.480 960.993 526.124Q961.734 526.767 961.734 527.872L961.734 527.872L961.734 532.760L960.369 532.760L960.369 531.447L960.356 531.447Q960.265 532.045 959.771 532.422L959.771 532.422Q959.173 532.890 958.185 532.890ZM958.601 531.811L958.601 531.811Q959.355 531.811 959.842 531.428Q960.330 531.044 960.330 530.446L960.330 530.446L960.330 529.510L958.367 529.510Q957.821 529.510 957.502 529.809Q957.184 530.108 957.184 530.628L957.184 530.628Q957.184 531.174 957.561 531.492Q957.938 531.811 958.601 531.811Z M969.482 532.760L967.480 532.760Q966.505 532.760 965.959 532.227Q965.413 531.694 965.413 530.745L965.413 530.745L965.413 526.884L963.437 526.884L963.437 525.610L965.413 525.610L965.413 523.595L966.817 523.595L966.817 525.610L969.612 525.610L969.612 526.884L966.817 526.884L966.817 530.745Q966.817 531.486 967.532 531.486L967.532 531.486L969.482 531.486L969.482 532.760Z M974.552 532.890L974.552 532.890Q973.668 532.890 972.998 532.558Q972.329 532.227 971.971 531.596Q971.614 530.966 971.614 530.121L971.614 530.121L971.614 528.249Q971.614 527.391 971.971 526.767Q972.329 526.143 972.998 525.812Q973.668 525.480 974.552 525.480L974.552 525.480Q975.839 525.480 976.619 526.156Q977.399 526.832 977.438 528.002L977.438 528.002L976.034 528.002Q975.995 527.391 975.605 527.053Q975.215 526.715 974.552 526.715L974.552 526.715Q973.837 526.715 973.421 527.111Q973.005 527.508 973.005 528.236L973.005 528.236L973.005 530.121Q973.005 530.849 973.421 531.252Q973.837 531.655 974.552 531.655L974.552 531.655Q975.215 531.655 975.605 531.317Q975.995 530.979 976.034 530.368L976.034 530.368L977.438 530.368Q977.399 531.538 976.619 532.214Q975.839 532.890 974.552 532.890Z M980.896 532.760L979.492 532.760L979.492 523.270L980.896 523.270L980.896 525.610L980.883 526.975L980.909 526.975Q980.987 526.351 981.390 525.961L981.390 525.961Q981.897 525.480 982.794 525.480L982.794 525.480Q983.860 525.480 984.497 526.163Q985.134 526.845 985.134 528.002L985.134 528.002L985.134 532.760L983.730 532.760L983.730 528.158Q983.730 527.456 983.353 527.066Q982.976 526.676 982.326 526.676L982.326 526.676Q981.663 526.676 981.279 527.086Q980.896 527.495 980.896 528.249L980.896 528.249L980.896 532.760Z M990.100 532.890L990.100 532.890Q989.580 532.890 989.268 532.584Q988.956 532.279 988.956 531.759L988.956 531.759Q988.956 531.226 989.268 530.908Q989.580 530.589 990.100 530.589L990.100 530.589Q990.633 530.589 990.938 530.908Q991.244 531.226 991.244 531.759L991.244 531.759Q991.244 532.279 990.938 532.584Q990.633 532.890 990.100 532.890Z"/>
    <path fill="#333333" color="icc-color(FOGRA39, 0, 0, 0, 0.8)" d="M860.477 551.760L859.622 551.760L859.622 549.167L857.532 544.825L858.416 544.825L859.793 547.675Q859.907 547.913 859.974 548.079Q860.040 548.245 860.059 548.321L860.059 548.321Q860.078 548.245 860.150 548.079Q860.221 547.913 860.335 547.675L860.335 547.675L861.684 544.825L862.567 544.825L860.477 549.167L860.477 551.760Z M865.750 551.836L865.750 551.836Q865.123 551.836 864.667 551.598Q864.211 551.361 863.959 550.910Q863.707 550.458 863.707 549.841L863.707 549.841L863.707 548.454Q863.707 547.827 863.959 547.380Q864.211 546.934 864.667 546.697Q865.123 546.459 865.750 546.459L865.750 546.459Q866.377 546.459 866.833 546.697Q867.289 546.934 867.541 547.380Q867.793 547.827 867.793 548.444L867.793 548.444L867.793 549.841Q867.793 550.458 867.541 550.910Q867.289 551.361 866.833 551.598Q866.377 551.836 865.750 551.836ZM865.750 551.076L865.750 551.076Q866.310 551.076 866.624 550.763Q866.938 550.449 866.938 549.841L866.938 549.841L866.938 548.454Q866.938 547.846 866.624 547.533Q866.310 547.219 865.750 547.219L865.750 547.219Q865.199 547.219 864.881 547.533Q864.563 547.846 864.563 548.454L864.563 548.454L864.563 549.841Q864.563 550.449 864.881 550.763Q865.199 551.076 865.750 551.076Z M871.441 551.855L871.441 551.855Q870.538 551.855 869.996 551.318Q869.455 550.781 869.455 549.860L869.455 549.860L869.455 546.535L870.310 546.535L870.310 549.860Q870.310 550.449 870.614 550.777Q870.918 551.105 871.441 551.105L871.441 551.105Q871.972 551.105 872.281 550.777Q872.590 550.449 872.590 549.860L872.590 549.860L872.590 546.535L873.445 546.535L873.445 549.860Q873.445 550.781 872.894 551.318Q872.343 551.855 871.441 551.855Z M876.210 551.760L875.355 551.760L875.355 546.535L876.191 546.535L876.191 547.466Q876.286 547.105 876.485 546.867L876.485 546.867Q876.846 546.440 877.568 546.440L877.568 546.440Q878.395 546.440 878.884 546.958Q879.373 547.476 879.373 548.359L879.373 548.359L879.373 548.673L878.518 548.673L878.518 548.435Q878.518 547.817 878.219 547.490Q877.920 547.162 877.369 547.162L877.369 547.162Q876.827 547.162 876.518 547.495Q876.210 547.827 876.210 548.435L876.210 548.435L876.210 551.760Z M888.094 551.855L888.094 551.855Q887.268 551.855 886.793 551.432Q886.318 551.010 886.318 550.288L886.318 550.288Q886.318 549.556 886.793 549.138Q887.268 548.720 888.075 548.720L888.075 548.720L889.690 548.720L889.690 548.197Q889.690 547.713 889.400 547.452Q889.111 547.191 888.579 547.191L888.579 547.191Q888.113 547.191 887.800 547.385Q887.486 547.580 887.439 547.913L887.439 547.913L886.584 547.913Q886.669 547.238 887.220 546.839Q887.771 546.440 888.598 546.440L888.598 546.440Q889.500 546.440 890.023 546.905Q890.545 547.371 890.545 548.169L890.545 548.169L890.545 551.760L889.709 551.760L889.709 550.763L889.700 550.763Q889.652 551.228 889.272 551.523L889.272 551.523Q888.826 551.855 888.094 551.855ZM888.303 551.180L888.303 551.180Q888.911 551.180 889.301 550.876Q889.690 550.572 889.690 550.097L889.690 550.097L889.690 549.356L888.094 549.356Q887.667 549.356 887.420 549.594Q887.173 549.832 887.173 550.240L887.173 550.240Q887.173 550.677 887.472 550.929Q887.771 551.180 888.303 551.180Z M894.583 553.470L892.930 553.470L892.930 552.691L894.592 552.691Q894.991 552.691 895.176 552.510Q895.362 552.330 895.362 551.950L895.362 551.950L895.362 551.285L895.381 550.335L895.362 550.335Q895.324 550.800 894.991 551.095L894.991 551.095Q894.611 551.428 893.975 551.428L893.975 551.428Q893.167 551.428 892.702 550.900Q892.236 550.373 892.236 549.480L892.236 549.480L892.236 548.378Q892.236 547.485 892.702 546.962Q893.167 546.440 893.975 546.440L893.975 546.440Q894.611 546.440 894.991 546.773L894.991 546.773Q895.324 547.067 895.362 547.533L895.362 547.533L895.371 547.533L895.371 546.535L896.217 546.535L896.217 551.950Q896.217 552.653 895.784 553.062Q895.352 553.470 894.583 553.470L894.583 553.470ZM894.231 550.687L894.231 550.687Q894.763 550.687 895.067 550.354Q895.371 550.021 895.371 549.433L895.371 549.433L895.371 548.435Q895.371 547.846 895.067 547.514Q894.763 547.181 894.231 547.181L894.231 547.181Q893.690 547.181 893.390 547.504Q893.091 547.827 893.091 548.435L893.091 548.435L893.091 549.433Q893.091 550.040 893.390 550.364Q893.690 550.687 894.231 550.687Z M899.950 551.855L899.950 551.855Q899.333 551.855 898.872 551.608Q898.411 551.361 898.159 550.910Q897.908 550.458 897.908 549.860L897.908 549.860L897.908 548.435Q897.908 547.827 898.159 547.380Q898.411 546.934 898.872 546.687Q899.333 546.440 899.950 546.440Q900.568 546.440 901.028 546.687Q901.489 546.934 901.741 547.380Q901.993 547.827 901.993 548.435L901.993 548.435L901.993 549.356L898.744 549.356L898.744 549.860Q898.744 550.477 899.057 550.805Q899.371 551.133 899.950 551.133L899.950 551.133Q900.444 551.133 900.748 550.957Q901.052 550.781 901.119 550.430L901.119 550.430L901.974 550.430Q901.888 551.086 901.332 551.470Q900.777 551.855 899.950 551.855ZM898.744 548.711L901.157 548.711L901.157 548.435Q901.157 547.817 900.848 547.485Q900.539 547.153 899.950 547.153L899.950 547.153Q899.371 547.153 899.057 547.485Q898.744 547.817 898.744 548.435L898.744 548.435L898.744 548.711Z M904.529 551.760L903.674 551.760L903.674 546.535L904.529 546.535L904.529 547.533L904.539 547.533Q904.596 547.058 904.900 546.773L904.900 546.773Q905.270 546.440 905.926 546.440L905.926 546.440Q906.714 546.440 907.180 546.924Q907.645 547.409 907.645 548.245L907.645 548.245L907.645 551.760L906.790 551.760L906.790 548.340Q906.790 547.779 906.491 547.480Q906.192 547.181 905.679 547.181L905.679 547.181Q905.147 547.181 904.838 547.504Q904.529 547.827 904.529 548.435L904.529 548.435L904.529 551.760Z M913.345 551.760L911.920 551.760Q911.246 551.760 910.870 551.399Q910.495 551.038 910.495 550.382L910.495 550.382L910.495 547.314L909.023 547.314L909.023 546.535L910.495 546.535L910.495 545.063L911.350 545.063L911.350 546.535L913.440 546.535L913.440 547.314L911.350 547.314L911.350 550.382Q911.350 550.981 911.920 550.981L911.920 550.981L913.345 550.981L913.345 551.760Z M917.288 551.836L916.889 551.836Q916.357 551.836 915.962 551.670Q915.568 551.504 915.335 551.199Q915.103 550.895 915.055 550.477L915.055 550.477L915.910 550.477Q915.967 550.753 916.219 550.914Q916.471 551.076 916.889 551.076L916.889 551.076L917.288 551.076Q917.791 551.076 918.038 550.872Q918.285 550.668 918.285 550.326L918.285 550.326Q918.285 549.993 918.062 549.798Q917.839 549.603 917.402 549.537L917.402 549.537L916.699 549.423Q915.929 549.290 915.554 548.943Q915.179 548.596 915.179 547.932L915.179 547.932Q915.179 547.228 915.625 546.844Q916.072 546.459 916.965 546.459L916.965 546.459L917.326 546.459Q918.076 546.459 918.532 546.811Q918.988 547.162 919.083 547.760L919.083 547.760L918.228 547.760Q918.171 547.514 917.943 547.366Q917.715 547.219 917.326 547.219L917.326 547.219L916.965 547.219Q916.480 547.219 916.257 547.399Q916.034 547.580 916.034 547.941L916.034 547.941Q916.034 548.264 916.224 548.416Q916.414 548.568 916.822 548.635L916.822 548.635L917.525 548.749Q918.371 548.881 918.755 549.242Q919.140 549.603 919.140 550.288L919.140 550.288Q919.140 551.010 918.679 551.423Q918.219 551.836 917.288 551.836L917.288 551.836Z M927.709 551.760L926.769 551.760L925.933 546.535L926.693 546.535L927.215 550.240Q927.244 550.449 927.277 550.691Q927.310 550.933 927.329 551.095L927.329 551.095Q927.348 550.933 927.391 550.691Q927.434 550.449 927.462 550.240L927.462 550.240L928.042 546.535L928.859 546.535L929.438 550.240Q929.467 550.449 929.509 550.691Q929.552 550.933 929.571 551.095L929.571 551.095Q929.590 550.933 929.633 550.691Q929.676 550.449 929.704 550.240L929.704 550.240L930.246 546.535L930.968 546.535L930.094 551.760L929.153 551.760L928.593 548.150Q928.555 547.884 928.507 547.618Q928.460 547.352 928.441 547.200L928.441 547.200Q928.422 547.352 928.384 547.618Q928.346 547.884 928.298 548.150L928.298 548.150L927.709 551.760Z M934.150 551.836L934.150 551.836Q933.523 551.836 933.067 551.598Q932.611 551.361 932.359 550.910Q932.108 550.458 932.108 549.841L932.108 549.841L932.108 548.454Q932.108 547.827 932.359 547.380Q932.611 546.934 933.067 546.697Q933.523 546.459 934.150 546.459L934.150 546.459Q934.777 546.459 935.233 546.697Q935.689 546.934 935.941 547.380Q936.193 547.827 936.193 548.444L936.193 548.444L936.193 549.841Q936.193 550.458 935.941 550.910Q935.689 551.361 935.233 551.598Q934.777 551.836 934.150 551.836ZM934.150 551.076L934.150 551.076Q934.711 551.076 935.024 550.763Q935.338 550.449 935.338 549.841L935.338 549.841L935.338 548.454Q935.338 547.846 935.024 547.533Q934.711 547.219 934.150 547.219L934.150 547.219Q933.599 547.219 933.281 547.533Q932.963 547.846 932.963 548.454L932.963 548.454L932.963 549.841Q932.963 550.449 933.281 550.763Q933.599 551.076 934.150 551.076Z M938.910 551.760L938.055 551.760L938.055 546.535L938.891 546.535L938.891 547.466Q938.986 547.105 939.185 546.867L939.185 546.867Q939.546 546.440 940.268 546.440L940.268 546.440Q941.095 546.440 941.584 546.958Q942.073 547.476 942.073 548.359L942.073 548.359L942.073 548.673L941.218 548.673L941.218 548.435Q941.218 547.817 940.919 547.490Q940.620 547.162 940.069 547.162L940.069 547.162Q939.527 547.162 939.218 547.495Q938.910 547.827 938.910 548.435L938.910 548.435L938.910 551.760Z M944.458 551.760L943.603 551.760L943.603 544.825L944.458 544.825L944.458 548.692L945.465 548.692L946.985 546.535L947.963 546.535L946.206 549.024L947.992 551.760L946.994 551.760L945.474 549.433L944.458 549.433L944.458 551.760Z M957.045 551.760L956.190 551.760L956.190 547.837L954.670 547.837L954.670 547.058L956.190 547.058L956.190 546.155Q956.190 545.538 956.580 545.181Q956.969 544.825 957.653 544.825L957.653 544.825L959.183 544.825L959.183 545.604L957.653 545.604Q957.359 545.604 957.202 545.742Q957.045 545.880 957.045 546.155L957.045 546.155L957.045 547.058L959.183 547.058L959.183 547.837L957.045 547.837L957.045 551.760Z M962.650 551.836L962.650 551.836Q962.023 551.836 961.567 551.598Q961.111 551.361 960.859 550.910Q960.608 550.458 960.608 549.841L960.608 549.841L960.608 548.454Q960.608 547.827 960.859 547.380Q961.111 546.934 961.567 546.697Q962.023 546.459 962.650 546.459L962.650 546.459Q963.277 546.459 963.733 546.697Q964.189 546.934 964.441 547.380Q964.693 547.827 964.693 548.444L964.693 548.444L964.693 549.841Q964.693 550.458 964.441 550.910Q964.189 551.361 963.733 551.598Q963.277 551.836 962.650 551.836ZM962.650 551.076L962.650 551.076Q963.211 551.076 963.524 550.763Q963.838 550.449 963.838 549.841L963.838 549.841L963.838 548.454Q963.838 547.846 963.524 547.533Q963.211 547.219 962.650 547.219L962.650 547.219Q962.099 547.219 961.781 547.533Q961.463 547.846 961.463 548.454L961.463 548.454L961.463 549.841Q961.463 550.449 961.781 550.763Q962.099 551.076 962.650 551.076Z M967.410 551.760L966.555 551.760L966.555 546.535L967.391 546.535L967.391 547.466Q967.486 547.105 967.685 546.867L967.685 546.867Q968.046 546.440 968.768 546.440L968.768 546.440Q969.595 546.440 970.084 546.958Q970.573 547.476 970.573 548.359L970.573 548.359L970.573 548.673L969.718 548.673L969.718 548.435Q969.718 547.817 969.419 547.490Q969.120 547.162 968.569 547.162L968.569 547.162Q968.027 547.162 967.718 547.495Q967.410 547.827 967.410 548.435L967.410 548.435L967.410 551.760Z M979.503 553.470L978.591 553.470L979.361 551.437L977.423 546.535L978.373 546.535L979.589 549.765Q979.655 549.927 979.712 550.150Q979.769 550.373 979.807 550.525L979.807 550.525Q979.845 550.373 979.902 550.150Q979.959 549.927 980.016 549.765L980.016 549.765L981.156 546.535L982.078 546.535L979.503 553.470Z M985.450 551.836L985.450 551.836Q984.823 551.836 984.367 551.598Q983.911 551.361 983.659 550.910Q983.408 550.458 983.408 549.841L983.408 549.841L983.408 548.454Q983.408 547.827 983.659 547.380Q983.911 546.934 984.367 546.697Q984.823 546.459 985.450 546.459L985.450 546.459Q986.077 546.459 986.533 546.697Q986.989 546.934 987.241 547.380Q987.493 547.827 987.493 548.444L987.493 548.444L987.493 549.841Q987.493 550.458 987.241 550.910Q986.989 551.361 986.533 551.598Q986.077 551.836 985.450 551.836ZM985.450 551.076L985.450 551.076Q986.011 551.076 986.324 550.763Q986.638 550.449 986.638 549.841L986.638 549.841L986.638 548.454Q986.638 547.846 986.324 547.533Q986.011 547.219 985.450 547.219L985.450 547.219Q984.899 547.219 984.581 547.533Q984.263 547.846 984.263 548.454L984.263 548.454L984.263 549.841Q984.263 550.449 984.581 550.763Q984.899 551.076 985.450 551.076Z M991.141 551.855L991.141 551.855Q990.238 551.855 989.697 551.318Q989.155 550.781 989.155 549.860L989.155 549.860L989.155 546.535L990.010 546.535L990.010 549.860Q990.010 550.449 990.314 550.777Q990.618 551.105 991.141 551.105L991.141 551.105Q991.673 551.105 991.981 550.777Q992.290 550.449 992.290 549.860L992.290 549.860L992.290 546.535L993.145 546.535L993.145 549.860Q993.145 550.781 992.594 551.318Q992.043 551.855 991.141 551.855Z"/>
  
    </g>
  </g>

  <!-- L3: 유광 Spot UV  NOTE TO PRINTER: UV varnish mask -->
  <!-- All shapes in this group receive gloss UV coating -->
  <g id="l3-spot-uv"
     inkscape:groupmode="layer"
     inkscape:label="L3 유광 Spot UV (Gloss Varnish Pass)">
    <g transform="translate(35, 50)">
      
    <rect x="0" y="0" width="1050" height="3" fill="url(#edgeTopGrad)"/>
    <!-- 대각선 장식선 (Spot UV — 빛 받을 때 선이 번쩍) -->
    <line x1="770" y1="0" x2="897.5" y2="600"
      stroke="url(#accentLineGrad)" stroke-width="2" fill="none"/>
    <line x1="780.0" y1="0" x2="907.5" y2="600"
      stroke="url(#accentLine2Grad)" stroke-width="1" fill="none"/>
    <!-- 코너 마크 TL / BR (Spot UV) -->
    <path d="M56 36.4 L56 56.4 M56 36.4 L76 36.4"
      stroke="#E86520" stroke-width="1" fill="none" stroke-opacity="0.25"
      color="icc-color(FOGRA39, 0, 0.565, 0.863, 0.09)"/>
    <path d="M994 563.6 L994 543.6 M994 563.6 L974 563.6"
      stroke="#E86520" stroke-width="1" fill="none" stroke-opacity="0.25"
      color="icc-color(FOGRA39, 0, 0.565, 0.863, 0.09)"/>
    <!-- 로고마크 -->
    <g transform="translate(56, 52) scale(0.9166666666666666)">
      <circle cx="24" cy="24" r="14" stroke="#FFFFFF" stroke-width="2.5" fill="none"/>
      <path d="M18 30 L30 18" stroke="#FFFFFF" stroke-width="2.5"
        stroke-linecap="round" fill="none"/>
      <circle cx="30" cy="18" r="2.5" fill="#E86520" color="icc-color(FOGRA39, 0, 0.565, 0.863, 0.09)"/>
    </g>
    <path fill="#FFFFFF" color="icc-color(FOGRA39, 0, 0, 0, 0)" d="M123.906 85.969L123.906 85.969Q121.172 85.969 119.203 84.836Q117.234 83.703 116.180 81.680Q115.125 79.656 115.125 76.969L115.125 76.969Q115.125 74.266 116.180 72.242Q117.234 70.219 119.203 69.086Q121.172 67.953 123.906 67.953L123.906 67.953Q126.641 67.953 128.609 69.086Q130.578 70.219 131.625 72.242Q132.672 74.266 132.672 76.969L132.672 76.969Q132.672 79.656 131.625 81.680Q130.578 83.703 128.609 84.836Q126.641 85.969 123.906 85.969ZM123.906 81.797L123.906 81.797Q124.953 81.797 125.672 81.188Q126.391 80.578 126.758 79.484Q127.125 78.391 127.125 76.938L127.125 76.938Q127.125 75.484 126.758 74.398Q126.391 73.313 125.672 72.719Q124.953 72.125 123.906 72.125L123.906 72.125Q122.859 72.125 122.141 72.719Q121.422 73.313 121.055 74.398Q120.688 75.484 120.688 76.938L120.688 76.938Q120.688 78.391 121.055 79.484Q121.422 80.578 122.141 81.188Q122.859 81.797 123.906 81.797Z M143.656 92.547L143.656 92.547Q141.375 92.547 139.672 91.969Q137.969 91.391 136.914 90.359Q135.859 89.328 135.547 87.969L135.547 87.969L140.281 87Q140.438 87.469 140.859 87.867Q141.281 88.266 141.969 88.508Q142.656 88.750 143.625 88.750L143.625 88.750Q145.297 88.750 146.195 88Q147.094 87.250 147.094 85.688L147.094 85.688L147.094 82.594L146.672 82.594Q146.359 83.375 145.742 84.016Q145.125 84.656 144.180 85.031Q143.234 85.406 141.938 85.406L141.938 85.406Q140.016 85.406 138.430 84.508Q136.844 83.609 135.891 81.727Q134.938 79.844 134.938 76.906L134.938 76.906Q134.938 73.844 135.922 71.859Q136.906 69.875 138.492 68.914Q140.078 67.953 141.922 67.953L141.922 67.953Q143.313 67.953 144.305 68.422Q145.297 68.891 145.945 69.633Q146.594 70.375 146.922 71.172L146.922 71.172L147.078 71.172L147.078 68.172L152.469 68.172L152.469 85.250Q152.469 87.656 151.352 89.281Q150.234 90.906 148.250 91.727Q146.266 92.547 143.656 92.547ZM143.797 81.406L143.797 81.406Q144.844 81.406 145.578 80.875Q146.313 80.344 146.703 79.320Q147.094 78.297 147.094 76.891L147.094 76.891Q147.094 75.453 146.703 74.406Q146.313 73.359 145.586 72.789Q144.859 72.219 143.797 72.219L143.797 72.219Q142.750 72.219 142.023 72.805Q141.297 73.391 140.922 74.438Q140.547 75.484 140.547 76.891L140.547 76.891Q140.547 78.297 140.922 79.313Q141.297 80.328 142.023 80.867Q142.750 81.406 143.797 81.406Z M164.203 85.969L164.203 85.969Q161.469 85.969 159.484 84.883Q157.500 83.797 156.445 81.781Q155.391 79.766 155.391 76.969L155.391 76.969Q155.391 74.281 156.445 72.250Q157.500 70.219 159.438 69.086Q161.375 67.953 164 67.953L164 67.953Q165.844 67.953 167.383 68.531Q168.922 69.109 170.055 70.242Q171.188 71.375 171.805 73.031Q172.422 74.688 172.422 76.859L172.422 76.859L172.422 78.234L160.750 78.234Q160.797 79.406 161.203 80.219L161.203 80.219Q161.641 81.125 162.438 81.570Q163.234 82.016 164.297 82.016L164.297 82.016Q165.031 82.016 165.633 81.813Q166.234 81.609 166.664 81.203Q167.094 80.797 167.313 80.219L167.313 80.219L172.172 81.016Q171.734 82.516 170.664 83.633Q169.594 84.750 167.961 85.359Q166.328 85.969 164.203 85.969ZM160.781 75.063L160.781 75.063L167.250 75.063Q167.156 74.313 166.922 73.719L166.922 73.719Q166.547 72.844 165.828 72.375Q165.109 71.906 164.047 71.906Q162.984 71.906 162.250 72.383Q161.516 72.859 161.141 73.703L161.141 73.703Q160.859 74.313 160.781 75.063Z M180.734 75.672L180.734 75.672L180.734 85.641L175.281 85.641L175.281 68.172L180.406 68.172L180.500 71.953Q181.141 70.297 182.297 69.219L182.297 69.219Q183.656 67.953 185.969 67.953L185.969 67.953Q187.797 67.953 189.156 68.766Q190.516 69.578 191.266 71.063Q192.016 72.547 192.016 74.516L192.016 74.516L192.016 85.641L186.563 85.641L186.563 75.578Q186.563 74.109 185.813 73.273Q185.063 72.438 183.719 72.438L183.719 72.438Q182.844 72.438 182.164 72.820Q181.484 73.203 181.109 73.922Q180.734 74.641 180.734 75.672Z M201.891 68.172L205.031 68.172L205.031 72.219L201.891 72.219L201.891 80.297Q201.891 80.984 202.219 81.320Q202.547 81.656 203.281 81.656L203.281 81.656Q203.563 81.656 204.070 81.594Q204.578 81.531 204.797 81.469L204.797 81.469L205.500 85.438Q204.578 85.703 203.719 85.797Q202.859 85.891 202.094 85.891L202.094 85.891Q199.313 85.891 197.875 84.586Q196.438 83.281 196.438 80.781L196.438 80.781L196.438 72.219L194.125 72.219L194.125 68.172L196.438 68.172L196.438 64.016L201.891 64.016L201.891 68.172Z M213.281 85.641L207.828 85.641L207.828 68.172L213.281 68.172L213.281 85.641ZM210.547 66.125L210.547 66.125Q209.391 66.125 208.563 65.352Q207.734 64.578 207.734 63.500L207.734 63.500Q207.734 62.406 208.563 61.641Q209.391 60.875 210.547 60.875L210.547 60.875Q211.719 60.875 212.547 61.633Q213.375 62.391 213.375 63.500L213.375 63.500Q213.375 64.594 212.547 65.359Q211.719 66.125 210.547 66.125Z"/>
    <circle cx="222.1" cy="79.9" r="5"
      fill="#E86520" color="icc-color(FOGRA39, 0, 0.565, 0.863, 0.09)"/>
    <path fill="#FFFFFF" color="icc-color(FOGRA39, 0, 0, 0, 0)" d="M63.752 149.398L63.752 149.398Q60.580 149.398 58.755 147.737Q56.930 146.076 56.930 143L56.930 143L56.930 141.811L61.100 141.811L61.100 143.068Q61.100 144.531 61.817 145.283Q62.535 146.035 63.752 146.035L63.752 146.035Q64.969 146.035 65.680 145.283Q66.391 144.531 66.391 143.055L66.391 143.055L66.391 128.754L70.520 128.754L70.520 142.986Q70.520 146.076 68.715 147.737Q66.910 149.398 63.752 149.398Z M79.379 149.316L79.379 149.316Q77.793 149.316 76.604 148.626Q75.414 147.936 74.765 146.644Q74.115 145.352 74.115 143.561L74.115 143.561L74.115 133.840L78.217 133.840L78.217 142.850Q78.217 144.271 78.955 145.078Q79.693 145.885 80.979 145.885L80.979 145.885Q81.854 145.885 82.523 145.509Q83.193 145.133 83.569 144.415Q83.945 143.697 83.945 142.686L83.945 142.686L83.945 133.840L88.061 133.840L88.061 149.125L84.178 149.125L84.137 145.939Q83.549 147.416 82.523 148.277L82.523 148.277Q81.279 149.316 79.379 149.316Z M98.902 149.125L94.732 149.125L90.221 133.840L94.527 133.840L95.854 139.486Q96.195 141.004 96.592 142.781L96.592 142.781Q96.865 143.998 97.098 145.365L97.098 145.365Q97.344 144.025 97.631 142.822L97.631 142.822Q98.055 141.031 98.424 139.486L98.424 139.486L99.818 133.840L103.592 133.840L104.959 139.486Q105.301 141.031 105.725 142.809L105.725 142.809Q106.012 144.025 106.271 145.379L106.271 145.379Q106.504 144.025 106.764 142.822L106.764 142.822Q107.133 141.045 107.488 139.486L107.488 139.486L108.814 133.840L113.176 133.840L108.637 149.125L104.467 149.125L102.771 143.232Q102.525 142.344 102.279 141.271Q102.033 140.197 101.801 139.076L101.801 139.076Q101.746 138.816 101.691 138.557L101.691 138.557Q101.637 138.816 101.582 139.076L101.582 139.076Q101.336 140.197 101.090 141.277Q100.844 142.357 100.598 143.232L100.598 143.232L98.902 149.125Z M122.186 149.426L122.186 149.426Q119.889 149.426 118.207 148.435Q116.525 147.443 115.616 145.673Q114.707 143.902 114.707 141.551L114.707 141.551Q114.707 139.172 115.616 137.401Q116.525 135.631 118.207 134.640Q119.889 133.648 122.186 133.648L122.186 133.648Q124.496 133.648 126.171 134.640Q127.846 135.631 128.755 137.401Q129.664 139.172 129.664 141.551L129.664 141.551Q129.664 143.902 128.755 145.673Q127.846 147.443 126.171 148.435Q124.496 149.426 122.186 149.426ZM122.186 146.199L122.186 146.199Q123.279 146.199 124.018 145.591Q124.756 144.982 125.125 143.923Q125.494 142.863 125.494 141.537L125.494 141.537Q125.494 140.184 125.125 139.131Q124.756 138.078 124.018 137.477Q123.279 136.875 122.186 136.875L122.186 136.875Q121.092 136.875 120.360 137.477Q119.629 138.078 119.260 139.131Q118.891 140.184 118.891 141.537L118.891 141.537Q118.891 142.863 119.260 143.923Q119.629 144.982 120.360 145.591Q121.092 146.199 122.186 146.199Z M136.623 140.279L136.623 140.279L136.623 149.125L132.521 149.125L132.521 133.840L136.391 133.840L136.445 136.998Q137.033 135.549 138.045 134.688L138.045 134.688Q139.262 133.648 141.203 133.648L141.203 133.648Q142.789 133.648 143.972 134.339Q145.154 135.029 145.804 136.321Q146.453 137.613 146.453 139.404L146.453 139.404L146.453 149.125L142.352 149.125L142.352 140.115Q142.352 138.693 141.620 137.887Q140.889 137.080 139.590 137.080L139.590 137.080Q138.729 137.080 138.052 137.456Q137.375 137.832 136.999 138.543Q136.623 139.254 136.623 140.279Z M160.850 149.125L156.680 149.125L156.680 128.754L160.850 128.754L160.850 136.984L169.723 136.984L169.723 128.754L173.906 128.754L173.906 149.125L169.723 149.125L169.723 140.443L160.850 140.443L160.850 149.125Z M181.768 149.426L181.768 149.426Q180.318 149.426 179.163 148.913Q178.008 148.400 177.345 147.382Q176.682 146.363 176.682 144.846L176.682 144.846Q176.682 143.574 177.153 142.713Q177.625 141.852 178.438 141.332Q179.252 140.813 180.284 140.539Q181.316 140.266 182.451 140.156L182.451 140.156Q183.777 140.020 184.591 139.903Q185.404 139.787 185.780 139.534Q186.156 139.281 186.156 138.789L186.156 138.789L186.156 138.721Q186.156 138.064 185.883 137.613Q185.609 137.162 185.069 136.923Q184.529 136.684 183.764 136.684L183.764 136.684Q182.971 136.684 182.383 136.923Q181.795 137.162 181.426 137.559Q181.057 137.955 180.879 138.447L180.879 138.447L177.119 137.832Q177.516 136.492 178.432 135.563Q179.348 134.633 180.708 134.141Q182.068 133.648 183.777 133.648L183.777 133.648Q185.008 133.648 186.170 133.942Q187.332 134.236 188.255 134.852Q189.178 135.467 189.718 136.458Q190.258 137.449 190.258 138.830L190.258 138.830L190.258 149.125L186.375 149.125L186.375 147.006L186.238 147.006Q185.869 147.717 185.254 148.257Q184.639 148.797 183.771 149.111Q182.902 149.426 181.768 149.426ZM182.930 146.541L182.930 146.541Q183.900 146.541 184.632 146.158Q185.363 145.775 185.773 145.119Q186.184 144.463 186.184 143.656L186.184 143.656L186.184 142.002Q186.006 142.139 185.637 142.248Q185.268 142.357 184.816 142.439Q184.365 142.521 183.928 142.590Q183.490 142.658 183.148 142.699L183.148 142.699Q182.396 142.809 181.822 143.055Q181.248 143.301 180.934 143.704Q180.619 144.107 180.619 144.736L180.619 144.736Q180.619 145.324 180.920 145.728Q181.221 146.131 181.740 146.336Q182.260 146.541 182.930 146.541Z"/>
    <path fill="#E86520" color="icc-color(FOGRA39, 0, 0.565, 0.863, 0.09)" d="M58.687 169.563L57.128 169.563L57.128 159.377L63.465 159.377L63.465 160.717L58.687 160.717L58.687 163.991L63.007 163.991L63.007 165.324L58.687 165.324L58.687 169.563Z M72.624 169.699L72.624 169.699Q71.305 169.699 70.262 169.074Q69.220 168.448 68.622 167.276Q68.023 166.104 68.023 164.477L68.023 164.477Q68.023 162.843 68.622 161.670Q69.220 160.498 70.262 159.869Q71.305 159.240 72.624 159.240L72.624 159.240Q73.943 159.240 74.979 159.869Q76.015 160.498 76.613 161.670Q77.211 162.843 77.211 164.477L77.211 164.477Q77.211 166.104 76.613 167.276Q76.015 168.448 74.979 169.074Q73.943 169.699 72.624 169.699ZM72.624 168.277L72.624 168.277Q73.492 168.277 74.179 167.843Q74.866 167.409 75.266 166.558Q75.666 165.707 75.666 164.477L75.666 164.477Q75.666 163.232 75.266 162.381Q74.866 161.530 74.179 161.096Q73.492 160.662 72.624 160.662L72.624 160.662Q71.749 160.662 71.059 161.100Q70.368 161.537 69.968 162.388Q69.568 163.239 69.568 164.477L69.568 164.477Q69.568 165.707 69.968 166.555Q70.368 167.402 71.059 167.840Q71.749 168.277 72.624 168.277Z M86.172 169.720L86.172 169.720Q84.948 169.720 84.032 169.248Q83.116 168.776 82.614 167.953Q82.111 167.129 82.111 166.063L82.111 166.063L82.111 159.377L83.670 159.377L83.670 165.933Q83.670 166.623 83.974 167.156Q84.278 167.689 84.839 167.997Q85.399 168.305 86.172 168.305L86.172 168.305Q86.938 168.305 87.495 167.997Q88.052 167.689 88.353 167.156Q88.653 166.623 88.653 165.933L88.653 165.933L88.653 159.377L90.219 159.377L90.219 166.063Q90.219 167.129 89.716 167.953Q89.214 168.776 88.301 169.248Q87.389 169.720 86.172 169.720Z M97.054 169.563L95.475 169.563L95.475 159.377L97.272 159.377L101.107 165.440Q101.299 165.741 101.538 166.158Q101.777 166.575 102.044 167.095L102.044 167.095Q102.188 167.375 102.324 167.683L102.324 167.683Q102.304 167.382 102.290 167.081L102.290 167.081Q102.256 166.514 102.242 166.015Q102.229 165.516 102.229 165.174L102.229 165.174L102.229 159.377L103.808 159.377L103.808 169.563L102.003 169.563L98.564 164.142Q98.291 163.697 98.028 163.246Q97.765 162.795 97.450 162.200L97.450 162.200Q97.225 161.797 96.938 161.264L96.938 161.264Q96.965 161.735 96.985 162.166L96.985 162.166Q97.020 162.822 97.037 163.325Q97.054 163.827 97.054 164.128L97.054 164.128L97.054 169.563Z M112.372 169.563L112.372 169.563L109.063 169.563L109.063 159.377L112.475 159.377Q113.979 159.377 115.052 159.985Q116.125 160.594 116.699 161.732Q117.273 162.870 117.273 164.456L117.273 164.456Q117.273 166.049 116.696 167.190Q116.118 168.332 115.021 168.947Q113.924 169.563 112.372 169.563ZM110.622 160.744L110.622 168.195L112.290 168.195Q113.445 168.195 114.211 167.765Q114.977 167.334 115.359 166.497Q115.742 165.659 115.742 164.456L115.742 164.456Q115.742 163.260 115.363 162.433Q114.983 161.605 114.235 161.175Q113.486 160.744 112.372 160.744L112.372 160.744L110.622 160.744Z M128.620 169.563L122.167 169.563L122.167 159.377L128.579 159.377L128.579 160.717L123.726 160.717L123.726 163.752L128.230 163.752L128.230 165.085L123.726 165.085L123.726 168.223L128.620 168.223L128.620 169.563Z M135.168 169.563L133.609 169.563L133.609 159.377L137.260 159.377Q138.436 159.377 139.222 159.784Q140.008 160.190 140.397 160.915Q140.787 161.640 140.787 162.576L140.787 162.576Q140.787 163.520 140.394 164.227Q140.001 164.935 139.215 165.324L139.215 165.324Q139.078 165.393 138.928 165.447L138.928 165.447L141.170 169.563L139.399 169.563L137.335 165.714Q137.294 165.714 137.246 165.714L137.246 165.714L135.168 165.714L135.168 169.563ZM135.168 160.710L135.168 164.381L137.096 164.381Q137.848 164.381 138.309 164.166Q138.771 163.950 138.989 163.547Q139.208 163.144 139.208 162.576L139.208 162.576Q139.208 162.002 138.989 161.585Q138.771 161.168 138.306 160.939Q137.841 160.710 137.082 160.710L137.082 160.710L135.168 160.710Z M155.250 169.706L155.250 169.706Q154.225 169.706 153.483 169.330Q152.741 168.954 152.341 168.318Q151.941 167.683 151.941 166.896L151.941 166.896Q151.941 166.240 152.205 165.762Q152.468 165.283 152.939 164.873L152.939 164.873Q153.370 164.497 153.917 164.101L153.917 164.101Q153.814 163.978 153.719 163.861L153.719 163.861Q153.295 163.349 153.045 162.819Q152.796 162.289 152.796 161.667L152.796 161.667Q152.796 160.970 153.114 160.430Q153.432 159.890 154.013 159.582Q154.594 159.274 155.373 159.274L155.373 159.274Q156.159 159.274 156.723 159.579Q157.287 159.883 157.595 160.396Q157.902 160.908 157.902 161.537L157.902 161.537Q157.902 162.002 157.731 162.405Q157.561 162.809 157.256 163.150Q156.952 163.492 156.549 163.793L156.549 163.793L155.852 164.306L157.882 166.726Q157.971 166.555 158.046 166.370L158.046 166.370Q158.299 165.721 158.299 164.921L158.299 164.921L159.659 164.921Q159.659 165.905 159.437 166.585Q159.215 167.266 158.900 167.696L158.900 167.696Q158.853 167.758 158.805 167.819L158.805 167.819L160.268 169.563L158.559 169.563L157.875 168.763Q157.383 169.221 156.699 169.453L156.699 169.453Q155.961 169.706 155.250 169.706ZM157.034 167.771L154.758 165.105L154.498 165.297Q153.938 165.707 153.695 166.076Q153.452 166.445 153.452 166.896L153.452 166.896Q153.452 167.354 153.674 167.703Q153.896 168.052 154.293 168.243Q154.689 168.435 155.209 168.435L155.209 168.435Q155.797 168.435 156.351 168.188L156.351 168.188Q156.713 168.024 157.034 167.771L157.034 167.771ZM155.024 163.308L155.024 163.308L155.653 162.863Q155.845 162.727 156.046 162.542Q156.248 162.357 156.385 162.111Q156.521 161.865 156.521 161.551L156.521 161.551Q156.521 161.113 156.224 160.823Q155.927 160.532 155.400 160.532L155.400 160.532Q155.045 160.532 154.775 160.676Q154.505 160.819 154.358 161.072Q154.211 161.325 154.211 161.667L154.211 161.667Q154.211 162.036 154.382 162.378Q154.553 162.720 154.854 163.089L154.854 163.089Q154.936 163.198 155.024 163.308Z M175.523 169.699L175.523 169.699Q174.204 169.699 173.165 169.074Q172.126 168.448 171.531 167.276Q170.937 166.104 170.937 164.477L170.937 164.477Q170.937 162.843 171.531 161.670Q172.126 160.498 173.165 159.869Q174.204 159.240 175.523 159.240L175.523 159.240Q176.330 159.240 177.038 159.473Q177.745 159.705 178.302 160.149Q178.859 160.594 179.225 161.229Q179.591 161.865 179.721 162.672L179.721 162.672L178.155 162.672Q178.060 162.187 177.817 161.814Q177.574 161.441 177.226 161.182Q176.877 160.922 176.446 160.792Q176.016 160.662 175.537 160.662L175.537 160.662Q174.662 160.662 173.968 161.103Q173.274 161.544 172.878 162.395Q172.481 163.246 172.481 164.477L172.481 164.477Q172.481 165.707 172.885 166.558Q173.288 167.409 173.979 167.843Q174.669 168.277 175.537 168.277L175.537 168.277Q176.016 168.277 176.443 168.144Q176.870 168.011 177.222 167.754Q177.574 167.498 177.817 167.122Q178.060 166.746 178.155 166.268L178.155 166.268L179.728 166.268Q179.611 167.020 179.256 167.645Q178.900 168.271 178.347 168.735Q177.793 169.200 177.079 169.450Q176.364 169.699 175.523 169.699Z M191.013 169.563L184.560 169.563L184.560 159.377L190.972 159.377L190.972 160.717L186.118 160.717L186.118 163.752L190.623 163.752L190.623 165.085L186.118 165.085L186.118 168.223L191.013 168.223L191.013 169.563Z M200.247 169.699L200.247 169.699Q198.928 169.699 197.885 169.074Q196.843 168.448 196.245 167.276Q195.646 166.104 195.646 164.477L195.646 164.477Q195.646 162.843 196.245 161.670Q196.843 160.498 197.885 159.869Q198.928 159.240 200.247 159.240L200.247 159.240Q201.566 159.240 202.602 159.869Q203.638 160.498 204.236 161.670Q204.834 162.843 204.834 164.477L204.834 164.477Q204.834 166.104 204.236 167.276Q203.638 168.448 202.602 169.074Q201.566 169.699 200.247 169.699ZM200.247 168.277L200.247 168.277Q201.115 168.277 201.802 167.843Q202.489 167.409 202.889 166.558Q203.289 165.707 203.289 164.477L203.289 164.477Q203.289 163.232 202.889 162.381Q202.489 161.530 201.802 161.096Q201.115 160.662 200.247 160.662L200.247 160.662Q199.372 160.662 198.682 161.100Q197.991 161.537 197.591 162.388Q197.191 163.239 197.191 164.477L197.191 164.477Q197.191 165.707 197.591 166.555Q197.991 167.402 198.682 167.840Q199.372 168.277 200.247 168.277Z"/>
  
    </g>
  </g>

  <!-- Crop marks (outside laminate area) -->
  <g id="cropmarks" stroke="#000000" stroke-width="0.5" fill="none" opacity="0.4">
    <line x1="35"   y1="10"  x2="35"   y2="28"/> <line x1="10"  y1="50"  x2="28"  y2="50"/>
    <line x1="1085" y1="10"  x2="1085" y2="28"/> <line x1="1092" y1="50" x2="1110" y2="50"/>
    <line x1="35"   y1="672" x2="35"   y2="690"/><line x1="10"  y1="650" x2="28"  y2="650"/>
    <line x1="1085" y1="672" x2="1085" y2="690"/><line x1="1092" y1="650" x2="1110" y2="650"/>
  </g>

</svg>