<?xml version="1.0" encoding="UTF-8" standalone="no"?>
<!--
  ogenti Business Card BACK  | L1 무광배경 / L2 무광텍스트 / L3 유광SpotUV
  LAYER STRUCTURE:
    l1-matte-bg   -> 무광 기저  (matte laminate pass)
    l2-matte-text -> 무광 텍스트 (matte laminate, same plate)
    l3-spot-uv    -> 유광 Spot UV (UV varnish pass)

  Print spec : FOGRA39 (ISO 12647-2 coated offset)
  Artboard   : 96mm x 60mm  (trim 90mm x 54mm, bleed 3mm/side)
  All text   : vector path outlines
  CMYK       : icc-color(FOGRA39, C, M, Y, K)
-->
<svg version="1.1"
  xmlns="http://www.w3.org/2000/svg"
  xmlns:xlink="http://www.w3.org/1999/xlink"
  xmlns:inkscape="http://www.inkscape.org/namespaces/inkscape"
  width="96mm" height="60mm"
  viewBox="0 0 1120 700">

  <defs>
    <color-profile name="FOGRA39"
      xlink:href="https://www.color.org/chardata/rgb/sRGB.xalter"
      rendering-intent="perceptual"/>
    <pattern id="gridpat" width="30" height="30" patternUnits="userSpaceOnUse">
      <path d="M 30 0 L 0 0 0 30" fill="none" stroke="white"
            stroke-width="0.5" stroke-opacity="0.02"/>
    </pattern>
    
    <linearGradient id="backEdgeTop" x1="0%" y1="0%" x2="100%" y2="0%">
      <stop offset="25%" stop-color="#E86520" stop-opacity="0"/>
      <stop offset="50%" stop-color="#E86520" stop-opacity="1"/>
      <stop offset="75%" stop-color="#E86520" stop-opacity="0"/>
    </linearGradient>
    <linearGradient id="backEdgeBot" x1="0%" y1="0%" x2="100%" y2="0%">
      <stop offset="25%" stop-color="#E86520" stop-opacity="0"/>
      <stop offset="50%" stop-color="#E86520" stop-opacity="0.3"/>
      <stop offset="75%" stop-color="#E86520" stop-opacity="0"/>
    </linearGradient>
  
  </defs>

  <!-- L1: 무광 배경 (Matte Background) -->
  <g id="l1-matte-bg"
     inkscape:groupmode="layer"
     inkscape:label="L1 무광 배경 (Matte Background)">
    <rect x="0" y="0" width="1120" height="700" fill="#000000" color="icc-color(FOGRA39, 0, 0, 0, 1)"/>
    <g id="l1-card" transform="translate(35, 50)">
      
    <rect x="0" y="0" width="1050" height="600" fill="#000000" color="icc-color(FOGRA39, 0, 0, 0, 1)"/>
    <rect x="0" y="0" width="1050" height="600" fill="url(#gridpat)"/>
    <rect x="0" y="598" width="1050" height="2" fill="url(#backEdgeBot)"/>
  
    </g>
  </g>

  <!-- L2: 무광 텍스트 (Matte Text  same laminate pass as L1) -->
  <g id="l2-matte-text"
     inkscape:groupmode="layer"
     inkscape:label="L2 무광 텍스트 (Matte Text)">
    <g transform="translate(35, 50)">
      
    <path fill="#595959" color="icc-color(FOGRA39, 0, 0, 0, 0.651)" d="M410.846 407.560L409.650 407.560L412.120 398.070L413.693 398.070L416.150 407.560L414.967 407.560L414.343 405.038L411.470 405.038L410.846 407.560ZM412.432 401.112L411.704 404.050L414.096 404.050L413.368 401.125Q413.160 400.293 413.043 399.734Q412.926 399.175 412.900 399.006L412.900 399.006Q412.874 399.175 412.757 399.734Q412.640 400.293 412.432 401.112L412.432 401.112Z M424.700 407.690L424.700 407.690Q423.374 407.690 422.672 406.956Q421.970 406.221 421.970 404.960L421.970 404.960L421.970 398.070L423.140 398.070L423.140 404.960Q423.140 405.740 423.523 406.195Q423.907 406.650 424.700 406.650L424.700 406.650Q425.480 406.650 425.870 406.195Q426.260 405.740 426.260 404.960L426.260 404.960L426.260 398.070L427.430 398.070L427.430 404.960Q427.430 406.234 426.734 406.962Q426.039 407.690 424.700 407.690Z M437.085 407.560L435.915 407.560L435.915 399.123L433.315 399.123L433.315 398.057L439.685 398.057L439.685 399.123L437.085 399.123L437.085 407.560Z M448.300 407.690L448.300 407.690Q447.442 407.690 446.825 407.365Q446.207 407.040 445.875 406.423Q445.544 405.805 445.544 404.960L445.544 404.960L445.544 400.670Q445.544 399.812 445.875 399.201Q446.207 398.590 446.825 398.265Q447.442 397.940 448.300 397.940L448.300 397.940Q449.158 397.940 449.775 398.265Q450.393 398.590 450.724 399.201Q451.056 399.812 451.056 400.657L451.056 400.657L451.056 404.960Q451.056 405.805 450.724 406.423Q450.393 407.040 449.775 407.365Q449.158 407.690 448.300 407.690ZM448.300 406.637L448.300 406.637Q449.067 406.637 449.476 406.202Q449.886 405.766 449.886 404.960L449.886 404.960L449.886 400.670Q449.886 399.864 449.476 399.428Q449.067 398.993 448.300 398.993L448.300 398.993Q447.546 398.993 447.130 399.428Q446.714 399.864 446.714 400.670L446.714 400.670L446.714 404.960Q446.714 405.766 447.130 406.202Q447.546 406.637 448.300 406.637Z M458.501 407.560L457.370 407.560L457.370 398.070L458.930 398.070L461.829 406.195Q461.803 405.870 461.770 405.396Q461.738 404.921 461.719 404.394Q461.699 403.868 461.699 403.400L461.699 403.400L461.699 398.070L462.830 398.070L462.830 407.560L461.270 407.560L458.384 399.435Q458.410 399.747 458.436 400.221Q458.462 400.696 458.481 401.223Q458.501 401.749 458.501 402.230L458.501 402.230L458.501 407.560Z M471.900 407.690L471.900 407.690Q471.042 407.690 470.425 407.365Q469.807 407.040 469.476 406.423Q469.144 405.805 469.144 404.960L469.144 404.960L469.144 400.670Q469.144 399.812 469.476 399.201Q469.807 398.590 470.425 398.265Q471.042 397.940 471.900 397.940L471.900 397.940Q472.758 397.940 473.375 398.265Q473.993 398.590 474.325 399.201Q474.656 399.812 474.656 400.657L474.656 400.657L474.656 404.960Q474.656 405.805 474.325 406.423Q473.993 407.040 473.375 407.365Q472.758 407.690 471.900 407.690ZM471.900 406.637L471.900 406.637Q472.667 406.637 473.077 406.202Q473.486 405.766 473.486 404.960L473.486 404.960L473.486 400.670Q473.486 399.864 473.077 399.428Q472.667 398.993 471.900 398.993L471.900 398.993Q471.146 398.993 470.730 399.428Q470.314 399.864 470.314 400.670L470.314 400.670L470.314 404.960Q470.314 405.766 470.730 406.202Q471.146 406.637 471.900 406.637Z M481.932 407.560L480.788 407.560L480.788 398.070L482.322 398.070L483.310 401.138Q483.453 401.554 483.570 401.964Q483.687 402.373 483.739 402.594L483.739 402.594Q483.804 402.373 483.908 401.964Q484.012 401.554 484.142 401.125L484.142 401.125L485.078 398.070L486.612 398.070L486.612 407.560L485.468 407.560L485.468 404.115Q485.468 403.543 485.507 402.815Q485.546 402.087 485.611 401.327Q485.676 400.566 485.748 399.870Q485.819 399.175 485.871 398.655L485.871 398.655L484.337 403.400L483.102 403.400L481.555 398.655Q481.620 399.162 481.685 399.832Q481.750 400.501 481.802 401.248Q481.854 401.996 481.893 402.737Q481.932 403.478 481.932 404.115L481.932 404.115L481.932 407.560Z M495.500 407.690L495.500 407.690Q494.642 407.690 494.025 407.365Q493.407 407.040 493.076 406.423Q492.744 405.805 492.744 404.960L492.744 404.960L492.744 400.670Q492.744 399.812 493.076 399.201Q493.407 398.590 494.025 398.265Q494.642 397.940 495.500 397.940L495.500 397.940Q496.358 397.940 496.976 398.265Q497.593 398.590 497.925 399.201Q498.256 399.812 498.256 400.657L498.256 400.657L498.256 404.960Q498.256 405.805 497.925 406.423Q497.593 407.040 496.976 407.365Q496.358 407.690 495.500 407.690ZM495.500 406.637L495.500 406.637Q496.267 406.637 496.677 406.202Q497.086 405.766 497.086 404.960L497.086 404.960L497.086 400.670Q497.086 399.864 496.677 399.428Q496.267 398.993 495.500 398.993L495.500 398.993Q494.746 398.993 494.330 399.428Q493.914 399.864 493.914 400.670L493.914 400.670L493.914 404.960Q493.914 405.766 494.330 406.202Q494.746 406.637 495.500 406.637Z M507.300 407.690L507.300 407.690Q505.974 407.690 505.272 406.956Q504.570 406.221 504.570 404.960L504.570 404.960L504.570 398.070L505.740 398.070L505.740 404.960Q505.740 405.740 506.124 406.195Q506.507 406.650 507.300 406.650L507.300 406.650Q508.080 406.650 508.470 406.195Q508.860 405.740 508.860 404.960L508.860 404.960L508.860 398.070L510.030 398.070L510.030 404.960Q510.030 406.234 509.335 406.962Q508.639 407.690 507.300 407.690Z M519.152 407.690L519.152 407.690Q518.216 407.690 517.547 407.378Q516.877 407.066 516.513 406.481Q516.149 405.896 516.136 405.090L516.136 405.090L517.306 405.090Q517.306 405.805 517.793 406.221Q518.281 406.637 519.152 406.637L519.152 406.637Q519.971 406.637 520.433 406.234Q520.894 405.831 520.894 405.116L520.894 405.116Q520.894 404.544 520.589 404.115Q520.283 403.686 519.711 403.517L519.711 403.517L518.424 403.114Q517.449 402.815 516.923 402.113Q516.396 401.411 516.396 400.462L516.396 400.462Q516.396 399.695 516.740 399.130Q517.085 398.564 517.709 398.245Q518.333 397.927 519.178 397.927L519.178 397.927Q520.426 397.927 521.180 398.623Q521.934 399.318 521.947 400.475L521.947 400.475L520.777 400.475Q520.777 399.773 520.355 399.377Q519.932 398.980 519.165 398.980L519.165 398.980Q518.411 398.980 517.989 399.344Q517.566 399.708 517.566 400.358L517.566 400.358Q517.566 400.943 517.878 401.372Q518.190 401.801 518.775 401.983L518.775 401.983L520.075 402.399Q521.024 402.698 521.544 403.413Q522.064 404.128 522.064 405.090L522.064 405.090Q522.064 405.870 521.700 406.455Q521.336 407.040 520.680 407.365Q520.023 407.690 519.152 407.690Z M540.646 407.560L539.450 407.560L541.920 398.070L543.493 398.070L545.950 407.560L544.767 407.560L544.143 405.038L541.270 405.038L540.646 407.560ZM542.232 401.112L541.504 404.050L543.896 404.050L543.168 401.125Q542.960 400.293 542.843 399.734Q542.726 399.175 542.700 399.006L542.700 399.006Q542.674 399.175 542.557 399.734Q542.440 400.293 542.232 401.112L542.232 401.112Z M557.035 407.560L551.965 407.560L551.965 406.494L553.902 406.494L553.902 399.136L551.965 399.136L551.965 398.070L557.035 398.070L557.035 399.136L555.098 399.136L555.098 406.494L557.035 406.494L557.035 407.560Z M576.046 407.560L574.850 407.560L577.320 398.070L578.893 398.070L581.350 407.560L580.167 407.560L579.543 405.038L576.670 405.038L576.046 407.560ZM577.632 401.112L576.904 404.050L579.296 404.050L578.568 401.125Q578.360 400.293 578.243 399.734Q578.126 399.175 578.100 399.006L578.100 399.006Q578.074 399.175 577.957 399.734Q577.840 400.293 577.632 401.112L577.632 401.112Z M589.952 407.690L589.952 407.690Q589.094 407.690 588.463 407.365Q587.833 407.040 587.488 406.423Q587.144 405.805 587.144 404.960L587.144 404.960L587.144 400.670Q587.144 399.812 587.488 399.201Q587.833 398.590 588.463 398.265Q589.094 397.940 589.952 397.940L589.952 397.940Q590.810 397.940 591.434 398.272Q592.058 398.603 592.396 399.214Q592.734 399.825 592.734 400.670L592.734 400.670L591.564 400.670Q591.564 399.864 591.141 399.428Q590.719 398.993 589.952 398.993L589.952 398.993Q589.185 398.993 588.749 399.422Q588.314 399.851 588.314 400.657L588.314 400.657L588.314 404.960Q588.314 405.766 588.749 406.208Q589.185 406.650 589.952 406.650L589.952 406.650Q590.719 406.650 591.141 406.208Q591.564 405.766 591.564 404.960L591.564 404.960L591.564 403.790L589.640 403.790L589.640 402.724L592.734 402.724L592.734 404.960Q592.734 405.792 592.396 406.409Q592.058 407.027 591.434 407.358Q590.810 407.690 589.952 407.690Z M604.560 407.560L599.100 407.560L599.100 398.070L604.560 398.070L604.560 399.136L600.257 399.136L600.257 402.074L604.105 402.074L604.105 403.127L600.257 403.127L600.257 406.494L604.560 406.494L604.560 407.560Z M611.901 407.560L610.770 407.560L610.770 398.070L612.330 398.070L615.229 406.195Q615.203 405.870 615.170 405.396Q615.138 404.921 615.118 404.394Q615.099 403.868 615.099 403.400L615.099 403.400L615.099 398.070L616.230 398.070L616.230 407.560L614.670 407.560L611.784 399.435Q611.810 399.747 611.836 400.221Q611.862 400.696 611.881 401.223Q611.901 401.749 611.901 402.230L611.901 402.230L611.901 407.560Z M625.885 407.560L624.715 407.560L624.715 399.123L622.115 399.123L622.115 398.057L628.485 398.057L628.485 399.123L625.885 399.123L625.885 407.560Z M637.152 407.690L637.152 407.690Q636.216 407.690 635.546 407.378Q634.877 407.066 634.513 406.481Q634.149 405.896 634.136 405.090L634.136 405.090L635.306 405.090Q635.306 405.805 635.793 406.221Q636.281 406.637 637.152 406.637L637.152 406.637Q637.971 406.637 638.432 406.234Q638.894 405.831 638.894 405.116L638.894 405.116Q638.894 404.544 638.588 404.115Q638.283 403.686 637.711 403.517L637.711 403.517L636.424 403.114Q635.449 402.815 634.922 402.113Q634.396 401.411 634.396 400.462L634.396 400.462Q634.396 399.695 634.740 399.130Q635.085 398.564 635.709 398.245Q636.333 397.927 637.178 397.927L637.178 397.927Q638.426 397.927 639.180 398.623Q639.934 399.318 639.947 400.475L639.947 400.475L638.777 400.475Q638.777 399.773 638.354 399.377Q637.932 398.980 637.165 398.980L637.165 398.980Q636.411 398.980 635.988 399.344Q635.566 399.708 635.566 400.358L635.566 400.358Q635.566 400.943 635.878 401.372Q636.190 401.801 636.775 401.983L636.775 401.983L638.075 402.399Q639.024 402.698 639.544 403.413Q640.064 404.128 640.064 405.090L640.064 405.090Q640.064 405.870 639.700 406.455Q639.336 407.040 638.679 407.365Q638.023 407.690 637.152 407.690Z"/>
  
    </g>
  </g>

  <!-- L3: 유광 Spot UV  NOTE TO PRINTER: UV varnish mask -->
  <!-- All shapes in this group receive gloss UV coating -->
  <g id="l3-spot-uv"
     inkscape:groupmode="layer"
     inkscape:label="L3 유광 Spot UV (Gloss Varnish Pass)">
    <g transform="translate(35, 50)">
      
    <rect x="0" y="0" width="1050" height="3" fill="url(#backEdgeTop)"/>
    <!-- 코너 마크 4개 (Spot UV) -->
    <path d="M16 16 L16 36 M16 16 L36 16"
      stroke="#E86520" stroke-width="1" fill="none" stroke-opacity="0.22"
      color="icc-color(FOGRA39, 0, 0.565, 0.863, 0.09)"/>
    <path d="M1034 16 L1034 36 M1034 16 L1014 16"
      stroke="#E86520" stroke-width="1" fill="none" stroke-opacity="0.22"
      color="icc-color(FOGRA39, 0, 0.565, 0.863, 0.09)"/>
    <path d="M16 584 L16 564 M16 584 L36 584"
      stroke="#E86520" stroke-width="1" fill="none" stroke-opacity="0.22"
      color="icc-color(FOGRA39, 0, 0.565, 0.863, 0.09)"/>
    <path d="M1034 584 L1034 564 M1034 584 L1014 584"
      stroke="#E86520" stroke-width="1" fill="none" stroke-opacity="0.22"
      color="icc-color(FOGRA39, 0, 0.565, 0.863, 0.09)"/>
    <g transform="translate(485.0, 195.0) scale(1.6667)">
      <circle cx="24" cy="24" r="14" stroke="#FFFFFF" stroke-width="2.2" fill="none"/>
      <path d="M18 30 L30 18" stroke="#FFFFFF" stroke-width="2.2"
        stroke-linecap="round" fill="none"/>
      <circle cx="30" cy="18" r="2.8" fill="#E86520" color="icc-color(FOGRA39, 0, 0.565, 0.863, 0.09)"/>
    </g>
    <path fill="#FFFFFF" color="icc-color(FOGRA39, 0, 0, 0, 0)" d="M455.539 349.992L455.539 349.992Q451.438 349.992 448.484 348.293Q445.531 346.594 443.949 343.559Q442.367 340.523 442.367 336.492L442.367 336.492Q442.367 332.438 443.949 329.402Q445.531 326.367 448.484 324.668Q451.438 322.969 455.539 322.969L455.539 322.969Q459.641 322.969 462.594 324.668Q465.547 326.367 467.117 329.402Q468.688 332.438 468.688 336.492L468.688 336.492Q468.688 340.523 467.117 343.559Q465.547 346.594 462.594 348.293Q459.641 349.992 455.539 349.992ZM455.539 343.734L455.539 343.734Q457.109 343.734 458.188 342.820Q459.266 341.906 459.816 340.266Q460.367 338.625 460.367 336.445L460.367 336.445Q460.367 334.266 459.816 332.637Q459.266 331.008 458.188 330.117Q457.109 329.227 455.539 329.227L455.539 329.227Q453.969 329.227 452.891 330.117Q451.813 331.008 451.262 332.637Q450.711 334.266 450.711 336.445L450.711 336.445Q450.711 338.625 451.262 340.266Q451.813 341.906 452.891 342.820Q453.969 343.734 455.539 343.734Z M485.164 359.859L485.164 359.859Q481.742 359.859 479.188 358.992Q476.633 358.125 475.051 356.578Q473.469 355.031 473 352.992L473 352.992L480.102 351.539Q480.336 352.242 480.969 352.840Q481.602 353.438 482.633 353.801Q483.664 354.164 485.117 354.164L485.117 354.164Q487.625 354.164 488.973 353.039Q490.320 351.914 490.320 349.570L490.320 349.570L490.320 344.930L489.688 344.930Q489.219 346.102 488.293 347.063Q487.367 348.023 485.949 348.586Q484.531 349.148 482.586 349.148L482.586 349.148Q479.703 349.148 477.324 347.801Q474.945 346.453 473.516 343.629Q472.086 340.805 472.086 336.398L472.086 336.398Q472.086 331.805 473.563 328.828Q475.039 325.852 477.418 324.410Q479.797 322.969 482.563 322.969L482.563 322.969Q484.648 322.969 486.137 323.672Q487.625 324.375 488.598 325.488Q489.570 326.602 490.063 327.797L490.063 327.797L490.297 327.797L490.297 323.297L498.383 323.297L498.383 348.914Q498.383 352.523 496.707 354.961Q495.031 357.398 492.055 358.629Q489.078 359.859 485.164 359.859ZM485.375 343.148L485.375 343.148Q486.945 343.148 488.047 342.352Q489.148 341.555 489.734 340.020Q490.320 338.484 490.320 336.375L490.320 336.375Q490.320 334.219 489.734 332.648Q489.148 331.078 488.059 330.223Q486.969 329.367 485.375 329.367L485.375 329.367Q483.805 329.367 482.715 330.246Q481.625 331.125 481.063 332.695Q480.500 334.266 480.500 336.375L480.500 336.375Q480.500 338.484 481.063 340.008Q481.625 341.531 482.715 342.340Q483.805 343.148 485.375 343.148Z M515.984 349.992L515.984 349.992Q511.883 349.992 508.906 348.363Q505.930 346.734 504.348 343.711Q502.766 340.688 502.766 336.492L502.766 336.492Q502.766 332.461 504.348 329.414Q505.930 326.367 508.836 324.668Q511.742 322.969 515.680 322.969L515.680 322.969Q518.445 322.969 520.754 323.836Q523.063 324.703 524.762 326.402Q526.461 328.102 527.387 330.586Q528.313 333.070 528.313 336.328L528.313 336.328L528.313 338.391L510.805 338.391Q510.875 340.148 511.484 341.367L511.484 341.367Q512.141 342.727 513.336 343.395Q514.531 344.063 516.125 344.063L516.125 344.063Q517.227 344.063 518.129 343.758Q519.031 343.453 519.676 342.844Q520.320 342.234 520.648 341.367L520.648 341.367L527.938 342.563Q527.281 344.813 525.676 346.488Q524.070 348.164 521.621 349.078Q519.172 349.992 515.984 349.992ZM510.852 333.633L510.852 333.633L520.555 333.633Q520.414 332.508 520.063 331.617L520.063 331.617Q519.500 330.305 518.422 329.602Q517.344 328.898 515.750 328.898Q514.156 328.898 513.055 329.613Q511.953 330.328 511.391 331.594L511.391 331.594Q510.969 332.508 510.852 333.633Z M540.781 334.547L540.781 334.547L540.781 349.500L532.602 349.500L532.602 323.297L540.289 323.297L540.430 328.969Q541.391 326.484 543.125 324.867L543.125 324.867Q545.164 322.969 548.633 322.969L548.633 322.969Q551.375 322.969 553.414 324.188Q555.453 325.406 556.578 327.633Q557.703 329.859 557.703 332.813L557.703 332.813L557.703 349.500L549.523 349.500L549.523 334.406Q549.523 332.203 548.398 330.949Q547.273 329.695 545.258 329.695L545.258 329.695Q543.945 329.695 542.926 330.270Q541.906 330.844 541.344 331.922Q540.781 333 540.781 334.547Z M572.516 323.297L577.227 323.297L577.227 329.367L572.516 329.367L572.516 341.484Q572.516 342.516 573.008 343.020Q573.500 343.523 574.602 343.523L574.602 343.523Q575.023 343.523 575.785 343.430Q576.547 343.336 576.875 343.242L576.875 343.242L577.930 349.195Q576.547 349.594 575.258 349.734Q573.969 349.875 572.820 349.875L572.820 349.875Q568.648 349.875 566.492 347.918Q564.336 345.961 564.336 342.211L564.336 342.211L564.336 329.367L560.867 329.367L560.867 323.297L564.336 323.297L564.336 317.063L572.516 317.063L572.516 323.297Z M589.602 349.500L581.422 349.500L581.422 323.297L589.602 323.297L589.602 349.500ZM585.500 320.227L585.500 320.227Q583.766 320.227 582.523 319.066Q581.281 317.906 581.281 316.289L581.281 316.289Q581.281 314.648 582.523 313.500Q583.766 312.352 585.500 312.352L585.500 312.352Q587.258 312.352 588.500 313.488Q589.742 314.625 589.742 316.289L589.742 316.289Q589.742 317.930 588.500 319.078Q587.258 320.227 585.500 320.227Z"/>
    <circle cx="602.3" cy="340.9" r="7"
      fill="#E86520" color="icc-color(FOGRA39, 0, 0.565, 0.863, 0.09)"/>
  
    </g>
  </g>

  <!-- Crop marks (outside laminate area) -->
  <g id="cropmarks" stroke="#000000" stroke-width="0.5" fill="none" opacity="0.4">
    <line x1="35"   y1="10"  x2="35"   y2="28"/> <line x1="10"  y1="50"  x2="28"  y2="50"/>
    <line x1="1085" y1="10"  x2="1085" y2="28"/> <line x1="1092" y1="50" x2="1110" y2="50"/>
    <line x1="35"   y1="672" x2="35"   y2="690"/><line x1="10"  y1="650" x2="28"  y2="650"/>
    <line x1="1085" y1="672" x2="1085" y2="690"/><line x1="1092" y1="650" x2="1110" y2="650"/>
  </g>

</svg>