<svg viewBox="0 0 256 233" xmlns="http://www.w3.org/2000/svg" preserveAspectRatio="xMidYMid"><g><rect fill="white" x="186.18" y="0" width="46.55" height="46.55"/><rect fill="white" x="209.45" y="0" width="46.55" height="46.55"/><rect fill="white" x="0" y="0" width="46.55" height="46.55"/><rect fill="white" x="0" y="46.55" width="46.55" height="46.55"/><rect fill="white" x="0" y="93.09" width="46.55" height="46.55"/><rect fill="white" x="0" y="139.64" width="46.55" height="46.55"/><rect fill="white" x="0" y="186.18" width="46.55" height="46.55"/><rect fill="white" x="23.27" y="0" width="46.55" height="46.55"/><rect fill="white" x="209.45" y="46.55" width="46.55" height="46.55"/><rect fill="white" x="23.27" y="46.55" width="46.55" height="46.55"/><rect fill="white" x="139.64" y="46.55" width="46.55" height="46.55"/><rect fill="white" x="162.91" y="46.55" width="46.55" height="46.55"/><rect fill="white" x="69.82" y="46.55" width="46.55" height="46.55"/><rect fill="white" x="116.36" y="93.09" width="46.55" height="46.55"/><rect fill="white" x="162.91" y="93.09" width="46.55" height="46.55"/><rect fill="white" x="69.82" y="93.09" width="46.55" height="46.55"/><rect fill="white" x="93.09" y="139.64" width="46.55" height="46.55"/><rect fill="white" x="116.36" y="139.64" width="46.55" height="46.55"/><rect fill="white" x="209.45" y="93.09" width="46.55" height="46.55"/><rect fill="white" x="23.27" y="93.09" width="46.55" height="46.55"/><rect fill="white" x="186.18" y="139.64" width="46.55" height="46.55"/><rect fill="white" x="209.45" y="139.64" width="46.55" height="46.55"/><rect fill="white" x="186.18" y="186.18" width="46.55" height="46.55"/><rect fill="white" x="23.27" y="139.64" width="46.55" height="46.55"/><rect fill="white" x="209.45" y="186.18" width="46.55" height="46.55"/><rect fill="white" x="23.27" y="186.18" width="46.55" height="46.55"/></g></svg>
