<svg viewBox="0 0 256 260" xmlns="http://www.w3.org/2000/svg" preserveAspectRatio="xMidYMid"><path d="M239.184,106.203 C245.054,88.524 243.022,69.173 233.608,53.1 C219.452,28.459 191,15.784 163.213,21.74 C147.554,4.321 123.795,-3.424 100.879,1.419 C77.963,6.261 59.369,22.957 52.096,45.221 C33.844,48.964 18.09,60.393 8.867,76.582 C-5.443,101.183 -2.195,132.215 16.899,153.32 C11.006,170.991 13.02,190.344 22.424,206.423 C36.598,231.072 65.068,243.747 92.87,237.783 C105.236,251.708 123.001,259.631 141.624,259.527 C170.105,259.552 195.338,241.166 204.038,214.046 C222.287,210.296 238.038,198.87 247.267,182.685 C261.404,158.128 258.142,127.263 239.184,106.203 Z M141.624,242.541 C130.256,242.559 119.244,238.575 110.519,231.286 L112.054,230.416 L163.725,200.591 C166.341,199.056 167.954,196.257 167.971,193.224 L167.971,120.374 L189.816,133.01 C190.034,133.121 190.186,133.331 190.225,133.573 L190.225,193.94 C190.169,220.758 168.442,242.485 141.624,242.541 Z M37.158,197.931 C31.456,188.086 29.409,176.547 31.377,165.342 L32.911,166.263 L84.633,196.089 C87.239,197.618 90.468,197.618 93.074,196.089 L156.255,159.664 L156.255,184.885 C156.244,185.15 156.112,185.395 155.897,185.55 L103.562,215.734 C80.305,229.132 50.592,221.165 37.158,197.931 Z M23.549,85.381 C29.29,75.473 38.351,67.916 49.129,64.048 L49.129,125.439 C49.089,128.459 50.697,131.263 53.324,132.754 L116.198,169.026 L94.353,181.662 C94.113,181.789 93.826,181.789 93.586,181.662 L41.353,151.53 C18.142,138.076 10.182,108.386 23.549,85.125 Z M203.015,127.076 L139.936,90.446 L161.729,77.861 C161.969,77.733 162.257,77.733 162.497,77.861 L214.73,108.045 C231.032,117.452 240.437,135.426 238.872,154.183 C237.306,172.939 225.051,189.106 207.414,195.68 L207.414,134.289 C207.323,131.277 205.651,128.536 203.015,127.076 Z M224.757,94.385 L223.222,93.464 L171.603,63.383 C168.981,61.844 165.732,61.844 163.111,63.383 L99.981,99.808 L99.981,74.587 C99.953,74.325 100.071,74.07 100.288,73.922 L152.521,43.789 C168.863,34.374 189.174,35.253 204.643,46.043 C220.111,56.834 227.949,75.592 224.757,94.18 Z M88.061,139.098 L66.216,126.513 C65.995,126.379 65.845,126.154 65.807,125.899 L65.807,65.685 C65.831,46.829 76.75,29.685 93.827,21.688 C110.904,13.692 131.064,16.284 145.563,28.339 L144.028,29.209 L92.358,59.034 C89.742,60.569 88.128,63.368 88.112,66.401 Z M99.929,113.519 L128.067,97.301 L156.255,113.519 L156.255,145.953 L128.169,162.171 L99.981,145.953 Z" fill="white"/></svg>
